<?xml version="1.0" encoding="UTF-8"?>
<svg width="140px" height="140px" viewBox="0 0 140 140" version="1.1" xmlns="http://www.w3.org/2000/svg" xmlns:xlink="http://www.w3.org/1999/xlink">
    <!-- Generator: Sketch 52.6 (67491) - http://www.bohemiancoding.com/sketch -->
    <title>certificate-icon</title>
    <desc>Created with Sketch.</desc>
    <g id="certificate-icon" stroke="none" stroke-width="1" fill="none" fill-rule="evenodd">
        <g id="Group-2" transform="translate(5.000000, -3.000000)">
            <path d="M69.8858673,77.4387505 L65.3883396,78.9937541 C62.0081366,80.1624468 58.2628798,78.9455391 56.2151784,76.0132134 L53.4906103,72.1116086 C52.4646579,70.6424359 50.9751576,69.5602507 49.2608547,69.0385112 L44.7082701,67.6529551 C41.2866881,66.6116139 38.9719921,63.4257082 39.0389448,59.8497982 L39.1280286,55.0918726 C39.1615736,53.3002473 38.5926352,51.5492347 37.5124057,50.1194967 L34.6436969,46.3226162 C32.4876639,43.468998 32.4876639,39.531002 34.6436969,36.6773838 L37.5124057,32.8805033 C38.5926352,31.4507653 39.1615736,29.6997527 39.1280286,27.9081274 L39.0389448,23.1502018 C38.9719921,19.5742918 41.2866881,16.3883861 44.7082701,15.3470449 L49.2608547,13.9614888 C50.9751576,13.4397493 52.4646579,12.3575641 53.4906103,10.8883914 L56.2151784,6.98678662 C58.2628798,4.05446086 62.0081366,2.83755316 65.3883396,4.00624589 L69.8858673,5.5612495 C71.5794382,6.14679542 73.4205618,6.14679542 75.1141327,5.5612495 L79.6116604,4.00624589 C82.9918634,2.83755316 86.7371202,4.05446086 88.7848216,6.98678662 L91.5093897,10.8883914 C92.5353421,12.3575641 94.0248424,13.4397493 95.7391453,13.9614888 L100.29173,15.3470449 C103.713312,16.3883861 106.028008,19.5742918 105.961055,23.1502018 L105.871971,27.9081274 C105.838426,29.6997527 106.407365,31.4507653 107.487594,32.8805033 L110.356303,36.6773838 C112.512336,39.531002 112.512336,43.468998 110.356303,46.3226162 L107.487594,50.1194967 C106.407365,51.5492347 105.838426,53.3002473 105.871971,55.0918726 L105.961055,59.8497982 C106.028008,63.4257082 103.713312,66.6116139 100.29173,67.6529551 L95.7391453,69.0385112 C94.0248424,69.5602507 92.5353421,70.6424359 91.5093897,72.1116086 L88.7848216,76.0132134 C86.7371202,78.9455391 82.9918634,80.1624468 79.6116604,78.9937541 L75.1141327,77.4387505 C73.4205618,76.8532046 71.5794382,76.8532046 69.8858673,77.4387505 Z" id="Star" fill="#D8E6FF"></path>
            <g id="Group-4" transform="translate(26.000000, 10.000000)" fill="#1066FF" fill-rule="nonzero">
                <g id="Group">
                    <g id="Group-3">
                        <path d="M39.5,60 C51.3741221,60 61,50.3741221 61,38.5 C61,26.6258779 51.3741221,17 39.5,17 C27.6258779,17 18,26.6258779 18,38.5 C18,50.3741221 27.6258779,60 39.5,60 Z M39.5,64 C25.4167389,64 14,52.5832611 14,38.5 C14,24.4167389 25.4167389,13 39.5,13 C53.5832611,13 65,24.4167389 65,38.5 C65,52.5832611 53.5832611,64 39.5,64 Z" id="Oval"></path>
                        <path d="M35.5788009,70.6583302 C38.1191573,69.7800113 40.8808427,69.7800113 43.4211991,70.6583302 L47.9187268,72.2133338 C49.6088283,72.7976802 51.4814567,72.1892263 52.5053074,70.7230635 L55.2298755,66.8214587 C56.7688042,64.6176997 59.0030545,62.9944218 61.574509,62.2118126 L66.1270935,60.8262565 C67.8378845,60.3055859 68.9952325,58.7126331 68.9617562,56.9246781 L68.8726723,52.1667525 C68.8223548,49.4793145 69.6757625,46.8527957 71.2961067,44.7081886 L74.1648155,40.9113081 C75.242832,39.484499 75.242832,37.515501 74.1648155,36.0886919 L71.2961067,32.2918114 C69.6757625,30.1472043 68.8223548,27.5206855 68.8726723,24.8332475 L68.9617562,20.0753219 C68.9952325,18.2873669 67.8378845,16.6944141 66.1270935,16.1737435 L61.574509,14.7881874 C59.0030545,14.0055782 56.7688042,12.3823003 55.2298755,10.1785413 L52.5053074,6.27693654 C51.4814567,4.81077365 49.6088283,4.2023198 47.9187268,4.78666617 L43.4211991,6.34166978 C40.8808427,7.21998866 38.1191573,7.21998866 35.5788009,6.34166978 L31.0812732,4.78666617 C29.3911717,4.2023198 27.5185433,4.81077365 26.4946926,6.27693654 L23.7701245,10.1785413 C22.2311958,12.3823003 19.9969455,14.0055782 17.425491,14.7881874 L12.8729065,16.1737435 C11.1621155,16.6944141 10.0047675,18.2873669 10.0382438,20.0753219 L10.1273277,24.8332475 C10.1776452,27.5206855 9.32423754,30.1472043 7.70389333,32.2918114 L4.83518452,36.0886919 C3.75716801,37.515501 3.75716801,39.484499 4.83518452,40.9113081 L7.70389333,44.7081886 C9.32423754,46.8527957 10.1776452,49.4793145 10.1273277,52.1667525 L10.0382438,56.9246781 C10.0047675,58.7126331 11.1621155,60.3055859 12.8729065,60.8262565 L17.425491,62.2118126 C19.9969455,62.9944218 22.2311958,64.6176997 23.7701245,66.8214587 L26.4946926,70.7230635 C27.5185433,72.1892263 29.3911717,72.7976802 31.0812732,72.2133338 L35.5788009,70.6583302 Z M32.3883396,75.9937541 C29.0081366,77.1624468 25.2628798,75.9455391 23.2151784,73.0132134 L20.4906103,69.1116086 C19.4646579,67.6424359 17.9751576,66.5602507 16.2608547,66.0385112 L11.7082701,64.6529551 C8.2866881,63.6116139 5.9719921,60.4257082 6.03894476,56.8497982 L6.1280286,52.0918726 C6.16157365,50.3002473 5.59263518,48.5492347 4.51240571,47.1194967 L1.6436969,43.3226162 C-0.512336113,40.468998 -0.512336113,36.531002 1.6436969,33.6773838 L4.51240571,29.8805033 C5.59263518,28.4507653 6.16157365,26.6997527 6.1280286,24.9081274 L6.03894476,20.1502018 C5.9719921,16.5742918 8.2866881,13.3883861 11.7082701,12.3470449 L16.2608547,10.9614888 C17.9751576,10.4397493 19.4646579,9.35756406 20.4906103,7.88839142 L23.2151784,3.98678662 C25.2628798,1.05446086 29.0081366,-0.162446841 32.3883396,1.00624589 L36.8858673,2.5612495 C38.5794382,3.14679542 40.4205618,3.14679542 42.1141327,2.5612495 L46.6116604,1.00624589 C49.9918634,-0.162446841 53.7371202,1.05446086 55.7848216,3.98678662 L58.5093897,7.88839142 C59.5353421,9.35756406 61.0248424,10.4397493 62.7391453,10.9614888 L67.2917299,12.3470449 C70.7133119,13.3883861 73.0280079,16.5742918 72.9610552,20.1502018 L72.8719714,24.9081274 C72.8384264,26.6997527 73.4073648,28.4507653 74.4875943,29.8805033 L77.3563031,33.6773838 C79.5123361,36.531002 79.5123361,40.468998 77.3563031,43.3226162 L74.4875943,47.1194967 C73.4073648,48.5492347 72.8384264,50.3002473 72.8719714,52.0918726 L72.9610552,56.8497982 C73.0280079,60.4257082 70.7133119,63.6116139 67.2917299,64.6529551 L62.7391453,66.0385112 C61.0248424,66.5602507 59.5353421,67.6424359 58.5093897,69.1116086 L55.7848216,73.0132134 C53.7371202,75.9455391 49.9918634,77.1624468 46.6116604,75.9937541 L42.1141327,74.4387505 C40.4205618,73.8532046 38.5794382,73.8532046 36.8858673,74.4387505 L32.3883396,75.9937541 Z" id="Star"></path>
                    </g>
                </g>
                <path d="M15.3123663,85.3457709 C14.8452599,86.3467132 13.6551713,86.7794727 12.6542291,86.3123663 C11.6532868,85.8452599 11.2205273,84.6551713 11.6876337,83.6542291 L19.7672373,66.3407928 C20.2343437,65.3398505 21.4244323,64.907091 22.4253745,65.3741974 C23.4263168,65.8413038 23.8590763,67.0313924 23.3919699,68.0323346 L15.3123663,85.3457709 Z" id="Line-5"></path>
                <path d="M59.3123663,85.3457709 C58.8452599,86.3467132 57.6551713,86.7794727 56.6542291,86.3123663 C55.6532868,85.8452599 55.2205273,84.6551713 55.6876337,83.6542291 L63.7672373,66.3407928 C64.2343437,65.3398505 65.4244323,64.907091 66.4253745,65.3741974 C67.4263168,65.8413038 67.8590763,67.0313924 67.3919699,68.0323346 L59.3123663,85.3457709 Z" id="Line-5" transform="translate(61.539802, 75.843282) scale(-1, 1) translate(-61.539802, -75.843282) "></path>
            </g>
            <g id="Group-5" transform="translate(0.000000, 54.000000)" fill="#1066FF" fill-rule="nonzero">
                <polygon id="Line" transform="translate(38.130080, 44.532861) rotate(25.000000) translate(-38.130080, -44.532861) " points="13.88008 81.396349 13.88008 7.66937388 17.88008 11.0396598 17.88008 75.5676407 38.13008 67.7620888 58.38008 75.5676407 58.38008 17.561355 62.38008 17.0016866 62.38008 81.396349 38.13008 72.0489597"></polygon>
                <polygon id="Line" transform="translate(92.393748, 44.632996) scale(-1, 1) rotate(25.000000) translate(-92.393748, -44.632996) " points="68.1437477 81.3859973 68.1437477 7.87999484 72.1437477 12.4258892 72.1437477 75.5572889 92.3937477 67.7517371 112.643748 75.5572889 112.643748 45.9484722 112.643748 26.3274776 116.643748 29.8375091 116.643748 81.3859973 92.3937477 72.038608"></polygon>
            </g>
        </g>
    </g>
</svg>