<svg xmlns="http://www.w3.org/2000/svg" viewBox="0 0 191.01 15.76"><defs><style>.cls-1{fill:#1d1d1b;}</style></defs><g id="Layer_2" data-name="Layer 2"><g id="Lager_1" data-name="Lager 1"><path class="cls-1" d="M8.2,13.34A5.11,5.11,0,0,1,2.77,7.93,5.06,5.06,0,0,1,8.14,2.51a8.6,8.6,0,0,1,4,1.16l.89-2.2A9.53,9.53,0,0,0,8.18.09C3.42.09,0,3.44,0,7.93s3.37,7.83,8.18,7.83a9.49,9.49,0,0,0,5-1.43l-.79-2.19A8.68,8.68,0,0,1,8.2,13.34Z"/><polygon class="cls-1" points="17.48 15.51 26.73 15.51 26.73 13.15 20.06 13.15 20.06 8.95 26.09 8.95 26.09 6.67 20.06 6.67 20.06 2.7 26.73 2.7 26.73 0.34 17.48 0.34 17.48 15.51"/><path class="cls-1" d="M42.07,5c0-2.69-1.9-4.78-6.21-4.78a33.13,33.13,0,0,0-4,.25v15h2.58V10c.5,0,1,.05,1.52.05.29,0,.53,0,.8,0l3.32,5.46h3l-4-6.11A4.64,4.64,0,0,0,42.07,5ZM35.94,7.93a12.29,12.29,0,0,1-1.49-.08V2.67a9.51,9.51,0,0,1,1.74-.12c2,0,3.15,1.06,3.15,2.59C39.34,6.88,38.2,7.93,35.94,7.93Z"/><polygon class="cls-1" points="45.57 2.7 50.4 2.7 50.4 15.51 52.98 15.51 52.98 2.7 57.79 2.7 57.79 0.34 45.57 0.34 45.57 2.7"/><rect class="cls-1" x="62.14" y="0.34" width="2.59" height="15.18"/><polygon class="cls-1" points="70.21 15.51 72.8 15.51 72.8 9.42 78.66 9.42 78.66 7.13 72.8 7.13 72.8 2.7 79.47 2.7 79.47 0.34 70.21 0.34 70.21 15.51"/><polygon class="cls-1" points="89.12 6.75 85.39 0.34 82.43 0.34 87.77 9.11 87.77 15.51 90.36 15.51 90.36 9.13 95.7 0.34 92.8 0.34 89.12 6.75"/><path class="cls-1" d="M98.53,7.21a1.36,1.36,0,1,0,1.35,1.34A1.34,1.34,0,0,0,98.53,7.21Z"/><polygon class="cls-1" points="113.8 6.67 106.82 6.67 106.82 0.34 104.23 0.34 104.23 15.51 106.82 15.51 106.82 8.99 113.8 8.99 113.8 15.51 116.39 15.51 116.39 0.34 113.8 0.34 113.8 6.67"/><polygon class="cls-1" points="121.77 15.51 131.02 15.51 131.02 13.15 124.36 13.15 124.36 8.95 130.38 8.95 130.38 6.67 124.36 6.67 124.36 2.7 131.02 2.7 131.02 0.34 121.77 0.34 121.77 15.51"/><polygon class="cls-1" points="155.04 0.34 152.46 0.34 152.46 15.51 161.71 15.51 161.71 13.15 155.04 13.15 155.04 0.34"/><polygon class="cls-1" points="162.4 2.7 167.22 2.7 167.22 15.51 169.81 15.51 169.81 2.7 174.61 2.7 174.61 0.34 162.4 0.34 162.4 2.7"/><polygon class="cls-1" points="188.42 0.34 188.42 6.67 181.44 6.67 181.44 0.34 178.86 0.34 178.86 15.51 181.44 15.51 181.44 8.99 188.42 8.99 188.42 15.51 191.01 15.51 191.01 0.34 188.42 0.34"/><path class="cls-1" d="M141.85,0l-7,15.47h2.9l.63-1.51h7.29l.63,1.51h3L142.18,0Zm-2.53,11.63L142,5.31l2.67,6.32Z"/></g></g></svg>