<?xml version="1.0" encoding="UTF-8"?>
<svg width="140px" height="140px" viewBox="0 0 140 140" version="1.1" xmlns="http://www.w3.org/2000/svg" xmlns:xlink="http://www.w3.org/1999/xlink">
    <!-- Generator: Sketch 52.6 (67491) - http://www.bohemiancoding.com/sketch -->
    <title>check-icon</title>
    <desc>Created with Sketch.</desc>
    <g id="check-icon" stroke="none" stroke-width="1" fill="none" fill-rule="evenodd">
        <g id="Group-2">
            <circle id="Oval" fill="#D8E6FF" cx="77" cy="63" r="63"></circle>
            <g id="Group" transform="translate(0.000000, 7.000000)" fill="#1066FF" fill-rule="nonzero">
                <path d="M66.5,129 C101.017797,129 129,101.017797 129,66.5 C129,31.9822031 101.017797,4 66.5,4 C31.9822031,4 4,31.9822031 4,66.5 C4,101.017797 31.9822031,129 66.5,129 Z M66.5,133 C29.7730641,133 0,103.226936 0,66.5 C0,29.7730641 29.7730641,0 66.5,0 C103.226936,0 133,29.7730641 133,66.5 C133,103.226936 103.226936,133 66.5,133 Z" id="Oval"></path>
                <path d="M96.6149142,49.8081634 C97.4735199,49.1132749 98.7328758,49.245994 99.4277642,50.1045997 C100.122653,50.9632055 99.9899336,52.2225613 99.1313279,52.9174498 L59.3814909,85.0878649 C58.5136143,85.7902564 57.2387186,85.6460652 56.5496398,84.7675812 L40.9008342,64.8174348 C40.2191163,63.9483351 40.3710192,62.6911489 41.240119,62.0094309 C42.1092188,61.327713 43.3664049,61.4796159 44.0481229,62.3487157 L58.443605,80.7010413 L96.6149142,49.8081634 Z" id="Line" transform="translate(70.173790, 67.448020) rotate(-6.000000) translate(-70.173790, -67.448020) "></path>
            </g>
        </g>
    </g>
</svg>