<?xml version="1.0" encoding="UTF-8"?>
<svg width="140px" height="140px" viewBox="0 0 140 140" version="1.1" xmlns="http://www.w3.org/2000/svg" xmlns:xlink="http://www.w3.org/1999/xlink">
    <!-- Generator: Sketch 52.6 (67491) - http://www.bohemiancoding.com/sketch -->
    <title>hour-glass-icon</title>
    <desc>Created with Sketch.</desc>
    <g id="hour-glass-icon" stroke="none" stroke-width="1" fill="none" fill-rule="evenodd">
        <g id="Group-5" transform="translate(19.000000, 0.000000)">
            <path d="M18,2.13162821e-14 L96,2.13162821e-14 C101.645264,17.5206115 103.009932,29.7608681 100.094003,36.7207697 C92.674776,54.4293959 67,53.2402566 67,63 C67,72.7597434 92.6720897,73.5624919 100.094515,91.2802227 C103.011641,98.2435612 101.646803,109.81682 96,126 L18,126 C12.2548022,109.734462 10.8901344,98.1608718 13.9059968,91.2792303 C21.2402793,74.543751 47,72.7600742 47,63 C47,53.2399258 21.2326446,54.4399144 13.9054852,37.7197773 C10.8886434,30.8355258 12.2534816,18.2622667 18,2.13162821e-14 Z" id="Rectangle" fill="#D8E6FF"></path>
            <g id="Group-4" transform="translate(0.000000, 8.000000)" fill="#1066FF" fill-rule="nonzero">
                <g id="Group">
                    <g id="Group-14" transform="translate(4.000000, 4.000000)">
                        <path d="M4.1058628,-0.936281295 L5.04214409,-2.70358923 L8.57675996,-0.831026641 L7.64047867,0.936281295 C3.88736156,8.02059846 2,16.5971081 2,26.6887417 C2,33.1691704 5.75831174,39.0565041 12.548658,44.0949713 C13.7837486,45.011414 15.5206166,45.938831 18.1700492,47.1458678 C19.0931819,47.5664316 22.6756469,49.1468198 22.4065274,49.0271221 C26.7561691,50.9617361 29.3745587,52.3225567 31.5946285,53.9802189 C34.6815792,56.285156 36.4,58.8896246 36.4,62 C36.4,65.1017305 34.6909971,67.719437 31.6133472,70.069988 C29.4041038,71.7572947 26.8240272,73.1456654 22.4415876,75.1840769 C22.1360493,75.3261925 21.8250315,75.4701831 21.4082566,75.6626477 C20.8950496,75.899529 20.622497,76.0253448 20.3868078,76.1343398 C19.5702552,76.5119564 18.9751751,76.7899901 18.4040017,77.0620814 C15.6509732,78.3735484 13.8609215,79.3718335 12.5919935,80.3584913 C5.80149829,85.6384565 2,91.7172205 2,98.1324503 C2,108.07381 3.8817805,116.361846 7.61748207,123.021543 L8.59593899,124.765854 L5.10731631,126.722768 L4.12885939,124.978457 C0.0336666498,117.677889 -2,108.720892 -2,98.1324503 C-2,90.3014888 2.45999751,83.1697554 10.1366747,77.2007374 C11.6936036,75.9901438 13.6870184,74.8784462 16.6837316,73.4508945 C17.2712918,73.170997 17.8786602,72.8872219 18.7078407,72.5037655 C18.9449907,72.394095 19.2190733,72.2675729 19.7312557,72.0311648 C20.1449909,71.8401039 20.4530083,71.6975024 20.7546187,71.5572138 C29.0408551,67.7030228 32.4,65.1374803 32.4,62 C32.4,58.8718652 29.0144489,56.3439717 20.7809633,52.6819191 C21.0710556,52.810945 17.4605978,51.2182079 16.5117075,50.7859094 C13.6232504,49.469977 11.6850982,48.4350825 10.1651274,47.3072574 C2.44845316,41.5814507 -2,34.6130217 -2,26.6887417 C-2,15.9768434 0.0280855935,6.7608585 4.1058628,-0.936281295 Z" id="Line-10"></path>
                        <path d="M55.7058628,-0.936281295 L56.6421441,-2.70358923 L60.17676,-0.831026641 L59.2404787,0.936281295 C55.4873616,8.02059846 53.6,16.5971081 53.6,26.6887417 C53.6,33.1691704 57.3583117,39.0565041 64.148658,44.0949713 C65.3837486,45.011414 67.1206166,45.938831 69.7700492,47.1458678 C70.6931819,47.5664316 74.2756469,49.1468198 74.0065274,49.0271221 C78.3561691,50.9617361 80.9745587,52.3225567 83.1946285,53.9802189 C86.2815792,56.285156 88,58.8896246 88,62 C88,65.1017305 86.2909971,67.719437 83.2133472,70.069988 C81.0041038,71.7572947 78.4240272,73.1456654 74.0415876,75.1840769 C73.7360493,75.3261925 73.4250315,75.4701831 73.0082566,75.6626477 C72.4950496,75.899529 72.222497,76.0253448 71.9868078,76.1343398 C71.1702552,76.5119564 70.5751751,76.7899901 70.0040017,77.0620814 C67.2509732,78.3735484 65.4609215,79.3718335 64.1919935,80.3584913 C57.4014983,85.6384565 53.6,91.7172205 53.6,98.1324503 C53.6,108.07381 55.4817805,116.361846 59.2174821,123.021543 L60.195939,124.765854 L56.7073163,126.722768 L55.7288594,124.978457 C51.6336666,117.677889 49.6,108.720892 49.6,98.1324503 C49.6,90.3014888 54.0599975,83.1697554 61.7366747,77.2007374 C63.2936036,75.9901438 65.2870184,74.8784462 68.2837316,73.4508945 C68.8712918,73.170997 69.4786602,72.8872219 70.3078407,72.5037655 C70.5449907,72.394095 70.8190733,72.2675729 71.3312557,72.0311648 C71.7449909,71.8401039 72.0530083,71.6975024 72.3546187,71.5572138 C80.6408551,67.7030228 84,65.1374803 84,62 C84,58.8718652 80.6144489,56.3439717 72.3809633,52.6819191 C72.6710556,52.810945 69.0605978,51.2182079 68.1117075,50.7859094 C65.2232504,49.469977 63.2850982,48.4350825 61.7651274,47.3072574 C54.0484532,41.5814507 49.6,34.6130217 49.6,26.6887417 C49.6,15.9768434 51.6280856,6.7608585 55.7058628,-0.936281295 Z" id="Line-10" transform="translate(68.800000, 62.009590) scale(-1, 1) translate(-68.800000, -62.009590) "></path>
                    </g>
                    <path d="M2,132 C0.8954305,132 0,131.104569 0,130 C0,128.895431 0.8954305,128 2,128 L92,128 C93.1045695,128 94,128.895431 94,130 C94,131.104569 93.1045695,132 92,132 L2,132 Z" id="Line"></path>
                    <path d="M2,4 C0.8954305,4 0,3.1045695 0,2 C0,0.8954305 0.8954305,0 2,0 L92,0 C93.1045695,0 94,0.8954305 94,2 C94,3.1045695 93.1045695,4 92,4 L2,4 Z" id="Line"></path>
                </g>
                <g id="Group-3" transform="translate(11.000000, 32.000000)">
                    <path d="M3.77487029,6.84379392 C2.75657103,7.27174297 1.58415512,6.79316956 1.15620608,5.77487029 C0.728257032,4.75657103 1.20683044,3.58415512 2.22512971,3.15620608 C7.23252601,1.05180461 12.5832449,6.82121026e-13 18.2615385,6.82121026e-13 C21.9519912,6.82121026e-13 24.1094231,0.555378495 28.119592,2.13994373 C31.7017308,3.5553785 33.4289143,4 36.5076923,4 C39.5864703,4 41.3136538,3.5553785 44.8957926,2.13994373 C48.9059615,0.555378495 51.0633934,0 54.7538462,0 C60.4617466,0 65.5105479,1.0631925 69.8799577,3.20398374 C70.8718701,3.68997096 71.2820035,4.88804532 70.7960163,5.87995772 C70.310029,6.87187011 69.1119547,7.28200349 68.1200423,6.79601626 C64.3253495,4.9368075 59.8767149,4 54.7538462,4 C51.6750682,4 49.9478846,4.4446215 46.3657459,5.86005627 C42.3555769,7.4446215 40.1981451,8 36.5076923,8 C32.8172395,8 30.6598077,7.4446215 26.6496387,5.86005627 C23.0675,4.4446215 21.3403164,4 18.2615385,4 C13.1090628,4 8.28542271,4.94819539 3.77487029,6.84379392 Z" id="Line-11"></path>
                    <path d="M3.77487029,87.8437939 C2.75657103,88.271743 1.58415512,87.7931696 1.15620608,86.7748703 C0.728257032,85.756571 1.20683044,84.5841551 2.22512971,84.1562061 C7.23252601,82.0518046 12.5832449,81 18.2615385,81 C21.9519912,81 24.1094231,81.5553785 28.119592,83.1399437 C31.7017308,84.5553785 33.4289143,85 36.5076923,85 C39.5864703,85 41.3136538,84.5553785 44.8957926,83.1399437 C48.9059615,81.5553785 51.0633934,81 54.7538462,81 C60.4617466,81 65.5105479,82.0631925 69.8799577,84.2039837 C70.8718701,84.689971 71.2820035,85.8880453 70.7960163,86.8799577 C70.310029,87.8718701 69.1119547,88.2820035 68.1200423,87.7960163 C64.3253495,85.9368075 59.8767149,85 54.7538462,85 C51.6750682,85 49.9478846,85.4446215 46.3657459,86.8600563 C42.3555769,88.4446215 40.1981451,89 36.5076923,89 C32.8172395,89 30.6598077,88.4446215 26.6496387,86.8600563 C23.0675,85.4446215 21.3403164,85 18.2615385,85 C13.1090628,85 8.28542271,85.9481954 3.77487029,87.8437939 Z" id="Line-11" transform="translate(35.999966, 85.000000) scale(1, -1) translate(-35.999966, -85.000000) "></path>
                    <g id="Group-2" transform="translate(34.000000, 39.000000)">
                        <path d="M0,2.5 C0,1.3954305 0.8954305,0.5 2,0.5 C3.1045695,0.5 4,1.3954305 4,2.5 L4,10 C4,11.1045695 3.1045695,12 2,12 C0.8954305,12 0,11.1045695 0,10 L0,2.5 Z" id="Line-12"></path>
                        <path d="M0,18 C0,16.8954305 0.8954305,16 2,16 C3.1045695,16 4,16.8954305 4,18 L4,19 C4,20.1045695 3.1045695,21 2,21 C0.8954305,21 0,20.1045695 0,19 L0,18 Z" id="Line-12"></path>
                        <path d="M0,32 C0,30.8954305 0.8954305,30 2,30 C3.1045695,30 4,30.8954305 4,32 L4,35 C4,36.1045695 3.1045695,37 2,37 C0.8954305,37 0,36.1045695 0,35 L0,32 Z" id="Line-12"></path>
                    </g>
                </g>
            </g>
        </g>
    </g>
</svg>