<?xml version="1.0" encoding="UTF-8"?>
<svg width="140px" height="140px" viewBox="0 0 140 140" version="1.1" xmlns="http://www.w3.org/2000/svg" xmlns:xlink="http://www.w3.org/1999/xlink">
    <!-- Generator: Sketch 52.6 (67491) - http://www.bohemiancoding.com/sketch -->
    <title>received-icon</title>
    <desc>Created with Sketch.</desc>
    <g id="received-icon" stroke="none" stroke-width="1" fill="none" fill-rule="evenodd">
        <g id="Group">
            <path d="M12.764391,36.2132747 L73.764391,16.4013089 C74.5674824,16.1404758 75.4325176,16.1404758 76.235609,16.4013089 L137.235609,36.2132747 C138.883933,36.7486279 140,38.284567 140,40.0176499 L140,126 C140,128.209139 138.209139,130 136,130 L14,130 C11.790861,130 10,128.209139 10,126 L10,40.0176499 C10,38.284567 11.1160666,36.7486279 12.764391,36.2132747 Z" id="Rectangle" fill="#D8E6FF"></path>
            <g id="Group-3" transform="translate(0.000000, 43.000000)" fill="#1066FF" fill-rule="nonzero">
                <path d="M13.6152704,0.808808424 L2.8236566,4.02893877 C1.1452901,4.52974977 -5.52821124e-14,6.03355477 -5.5067062e-14,7.73649629 L-5.68434189e-14,93.1209051 C-4.8724439e-14,95.26327 1.790861,97 4,97 L126,97 C128.209139,97 130,95.26327 130,93.1209051 L130,7.73649629 C130,6.03355477 128.85471,4.52974977 127.176343,4.02893877 L116.182844,0.748567515 L116.53761,5.02870543 L126,7.85220624 L126,93 L4,93 L4,7.85220624 L13.2386296,5.09547382 L13.6152704,0.808808424 Z" id="Path"></path>
                <path d="M126.394985,21.5937061 C127.447802,21.2595654 128.572153,21.8421677 128.906294,22.8949848 C129.240435,23.9478018 128.657832,25.0721532 127.605015,25.4062939 L64.5886218,45.4062939 C64.1887171,45.5332148 63.7590243,45.5311562 63.360354,45.4004095 L2.37674743,25.4004095 C1.32718025,25.0561966 0.755377618,23.9263146 1.09959051,22.8767474 C1.4438034,21.8271802 2.57368539,21.2553776 3.62325257,21.5995905 L63.9936746,41.3984923 L126.394985,21.5937061 Z" id="Line"></path>
            </g>
            <g id="Group-2" transform="translate(29.000000, 23.000000)" fill="#1066FF" fill-rule="nonzero">
                <path d="M2,4.5 C0.8954305,4.5 7.10542736e-15,3.6045695 7.10542736e-15,2.5 C7.10542736e-15,1.3954305 0.8954305,0.5 2,0.5 L70,0.5 C71.1045695,0.5 72,1.3954305 72,2.5 C72,3.6045695 71.1045695,4.5 70,4.5 L2,4.5 Z" id="Line-2"></path>
                <path d="M1.97701301,19.4998679 C0.872516472,19.4871725 -0.0125632578,18.5815096 0.000132104759,17.477013 C0.0128274673,16.3725165 0.918490447,15.4874367 2.02298699,15.5001321 L45.522987,16.0001321 C46.6274835,16.0128275 47.5125633,16.9184904 47.4998679,18.022987 C47.4871725,19.1274835 46.5815096,20.0125633 45.477013,19.9998679 L1.97701301,19.4998679 Z" id="Line-2"></path>
                <path d="M2,34.5 C0.8954305,34.5 -3.55271368e-13,33.6045695 -3.55271368e-13,32.5 C-3.55271368e-13,31.3954305 0.8954305,30.5 2,30.5 L62.5,30.5 C63.6045695,30.5 64.5,31.3954305 64.5,32.5 C64.5,33.6045695 63.6045695,34.5 62.5,34.5 L2,34.5 Z" id="Line-2"></path>
            </g>
            <path d="M16,70 C13.3333333,69.5555556 12,69.2222222 12,69 C12,55 12,34 12,6 C12,2.6862915 14.6862915,6.66133815e-16 18,0 L112,0 C115.313708,-6.66133815e-16 118,2.6862915 118,6 C118,33.5555556 118,54.2222222 118,68 C118,68.4444444 116.666667,69.1111111 114,70 L114,6 C114,4.8954305 113.104569,4 112,4 L18,4 C16.8954305,4 16,4.8954305 16,6 L16,70 Z" id="Path" fill="#1066FF" fill-rule="nonzero"></path>
        </g>
    </g>
</svg>