<?xml version="1.0" encoding="UTF-8"?>
<svg width="140px" height="140px" viewBox="0 0 140 140" version="1.1" xmlns="http://www.w3.org/2000/svg" xmlns:xlink="http://www.w3.org/1999/xlink">
    <!-- Generator: Sketch 52.6 (67491) - http://www.bohemiancoding.com/sketch -->
    <title>secure-icon</title>
    <desc>Created with Sketch.</desc>
    <g id="secure-icon" stroke="none" stroke-width="1" fill="none" fill-rule="evenodd">
        <g id="Group" transform="translate(17.000000, 0.000000)">
            <path d="M15,51 L103,51 C105.209139,51 107,52.790861 107,55 L107,125 C107,127.209139 105.209139,129 103,129 L15,129 C12.790861,129 11,127.209139 11,125 L11,55 C11,52.790861 12.790861,51 15,51 Z" id="Rectangle" fill="#D8E6FF"></path>
            <path d="M4,61.9512195 L4,135.04878 L96,135.04878 L96,61.9512195 L4,61.9512195 Z M4,58 L96,58 C98.209139,58 100,59.7690212 100,61.9512195 L100,135.04878 C100,137.230979 98.209139,139 96,139 L4,139 C1.790861,139 2.705415e-16,137.230979 0,135.04878 L0,61.9512195 C-2.705415e-16,59.7690212 1.790861,58 4,58 Z" id="Rectangle" fill="#1066FF" fill-rule="nonzero"></path>
            <path d="M17.5,60.1885669 L13.5,60.1885669 L13.5,32.0355271 C13.5,12.9165839 29.4010626,0.217264254 50,0.217264254 C70.6203292,0.217264254 86.5,12.907857 86.5,32.0355271 L86.5,60.1885669 L82.5,60.1885669 L82.5,32.0355271 C82.5,15.3389621 68.5834791,4.21726425 50,4.21726425 C31.4375006,4.21726425 17.5,15.3483929 17.5,32.0355271 L17.5,60.1885669 Z" id="Line" fill="#1066FF" fill-rule="nonzero"></path>
            <path d="M48,88.5 C48,87.3954305 48.8954305,86.5 50,86.5 C51.1045695,86.5 52,87.3954305 52,88.5 L52,108.5 C52,109.604569 51.1045695,110.5 50,110.5 C48.8954305,110.5 48,109.604569 48,108.5 L48,88.5 Z" id="Line-2" fill="#1066FF" fill-rule="nonzero"></path>
        </g>
    </g>
</svg>