<svg version="1.1" xmlns="http://www.w3.org/2000/svg" viewBox="0 0 936.1963986868186 1601.6595064539492" width="1872.3927973736372" height="3203.3190129078985">
  <!-- svg-source:excalidraw -->
  
  <defs>
    <style>
      @font-face {
        font-family: "Virgil";
        src: url("https://excalidraw.com/FG_Virgil.woff2");
      }
      @font-face {
        font-family: "Cascadia";
        src: url("https://excalidraw.com/Cascadia.woff2");
      }
    </style>
  </defs>
  <rect x="0" y="0" width="936.1963986868186" height="1601.6595064539492" fill="#ffffff"></rect><g transform="translate(10 9.999999999999943) rotate(0 457.47814178466797 790.8297532269746)"><path d="M-0.07931461185216904 0.2043712839484215 C240.09407656009535 2.0791483558689587, 481.56590675792177 3.1968249477421278, 914.9132984653118 0.2660436376929283 M-0.30127073600888254 -0.2396978847682476 C342.18681377167513 0.37358873470564335, 684.0888013250135 0.39867492302198854, 915.093662273139 0.20741126611828806 M914.7617416873577 -0.33118498474359515 C920.6925975278816 453.6525746054296, 919.9187052682839 908.3206832556614, 914.5915785804393 1581.7849874142587 M915.1592752568426 0.21174762323498728 C913.548052234017 374.2074784455386, 914.1650814479223 747.9754512417192, 915.3521841876211 1581.7782516863226 M914.690742017329 1581.3032495144785 C651.5732918627484 1582.818985269535, 388.77039401529674 1582.7858470420722, -0.7927343830466271 1581.1781024102152 M915.1862847201528 1581.6450575258614 C578.2274842888419 1583.844794706453, 241.34874901256032 1584.3128420153748, -0.3667024977505207 1581.3632375385641 M-0.45886635631322864 1582.121620858091 C3.2433466313396027 1263.2930853993817, 4.332818019202762 946.7749732194806, 0.14543647915124894 -0.435714890062809 M-0.09048160389065743 1582.0220050480248 C4.6872279842487234 1184.983802712458, 4.824943538486089 787.9430864913936, 0.29729884788393973 -0.28731379434466364" stroke="#000000" stroke-width="1" fill="none"></path></g><g transform="translate(11.01465027633003 10.59834056439064) rotate(0 457.5908742052443 16.544350157392785)"><path d="M-0.6385685168206692 -0.34087545052170753 L916.7828762771444 0.04325133189558983 L914.9667903425054 32.84780068861994 L-0.4658546410501003 33.81932218539271" stroke="none" stroke-width="0" fill="#ced4da"></path><path d="M-0.6124989286065102 0.46421723514795304 C359.59820229310435 -0.24596427819812447, 719.2215240592488 0.6445782766572222, 915.8468489596503 -0.531391428411007 M0.04194049909710884 -0.29016808345913886 C320.5087346517094 2.9655490090583116, 641.7184006610111 3.0397651126120837, 915.3611011000232 -0.06632348373532296 M913.7489501999573 1.3975794352591038 C913.4557501089555 11.802500869282136, 916.1482837212068 21.839017914877434, 915.8755012320237 33.23114862459454 M914.6311748845385 -0.7346711475402117 C915.6348922733384 10.638251024027571, 914.5220267657357 19.636384911293597, 914.2397829515742 33.47403304631564 M915.790426678385 33.79736993106756 C604.5511115878924 29.46680640779443, 293.6973662605833 29.052353235110715, 0.4898879751563072 32.47114908489141 M915.5346464844303 33.43162754344496 C665.1108315280658 30.09553072282191, 415.1066950690157 29.783987854207712, -0.3385212175548077 33.13100772666487 M-0.18693071976304054 33.75592663305554 C-0.39780151406478154 23.600315399818804, 1.1606149717216565 17.475957981279333, -0.5486685670912266 -0.780402060598135 M0.3435539621859789 32.78200899417254 C-0.10906540084315877 21.349936188867552, 0.12534005713032145 8.4037928726983, 0.47444367595016956 -0.12931820936501026" stroke="#000000" stroke-width="1" fill="none"></path></g><g><g transform="translate(42.363414430217745 17.96605711987553) rotate(0 11.717543995200458 -0.026762813629432003)"><path d="M-0.9187483929097653 0.6963258527219296 C3.010440642078379 0.5825820519521093, 20.07791959563722 -0.7314575632441763, 24.35383638331091 -0.7498514799807935 M0.7997699714731423 0.016292980061844098 C4.533009492251063 0.0535487375620014, 19.661446170559945 0.6698405316412476, 23.587040208320897 0.4319855770900132" stroke="#000000" stroke-width="1" fill="none"></path></g></g><g><g transform="translate(44.019905063075385 27.168653470856754) rotate(0 12.645206667666343 -0.21453523713971379)"><path d="M0.6963258527219296 0.34523674026131634 C4.596105431457022 0.6076301484300947, 19.33615933428039 0.5589664811860794, 23.331288797048682 0.6556120561029046 M-0.39724180393852304 -0.5191179164405912 C3.901148296053493 -0.518252915309071, 21.580261771990777 -1.0222628006026124, 25.687655139271 -1.084682530382347" stroke="#000000" stroke-width="1" fill="none"></path></g></g><g><g transform="translate(42.783697605280395 34.808623676124085) rotate(0 11.902049816345652 0.19529934291557538)"><path d="M0.34523674026131634 -0.6773108460009097 C4.621153527935007 -0.6957047627375269, 20.62658337871064 0.6180151740681404, 24.73675233313238 0.5859623523022264 M-0.9326527004409582 1.5814970145095142 C3.329346643182421 1.154161345160306, 19.888158439746917 -0.9322135439574692, 24.170987031798642 -1.1908983286783814" stroke="#000000" stroke-width="1" fill="none"></path></g></g><g transform="translate(379.44514400911703 16.788602366141845) rotate(0 73.5 12.5)"><text x="0" y="18" font-family="Virgil, Segoe UI Emoji" font-size="20px" fill="#000000" text-anchor="start" style="white-space: pre;" direction="ltr">MIL PALMERAS</text></g><g transform="translate(406.5039879477731 100.96636944585066) rotate(0 62 17.5)"><text x="0" y="25" font-family="Virgil, Segoe UI Emoji" font-size="28px" fill="#000000" text-anchor="start" style="white-space: pre;" direction="ltr">HOUSING</text></g><g transform="translate(12.448493326154676 214.81943687238982) rotate(0 226.2584401600393 118.6004638671875)"><path d="M-0.6747951470315456 -1.036542359739542 L453.58063333264636 0.4216696582734585 L450.9329548381929 235.53399163112044 L-0.6726402007043362 236.1857995353639" stroke="none" stroke-width="0" fill="#868e96"></path><path d="M-0.046659317987551144 -0.6212783293643251 C95.91651014817973 -0.19133409131204837, 191.29612206863584 0.9109160362469464, 453.4185513003635 -0.7130521186604015 M-0.44831344096121567 0.41233066113232103 C97.92099939703434 0.8430011493164005, 196.23349855941285 1.6856816261954162, 452.8733920178648 -0.29478455014317734 M453.150942431773 0.8874554406769646 C452.97414501959 74.96937701263012, 452.29443611604836 146.74719804649308, 453.13318725948585 235.75530522802083 M452.9948960380613 0.023817533009370086 C452.1148195446232 85.03885159834637, 452.02277841409295 169.44701740914135, 451.867660765253 237.03212435885834 M451.8971420044045 237.41326810633984 C311.5112774878014 237.2967103041214, 171.64352627971306 235.90389569036844, -0.3834800619649248 237.8421570450192 M452.9057526545975 237.18934265231724 C295.71690842150235 239.29844088620936, 138.02614928805758 239.2889701412877, -0.33064519706019585 237.6180495507965 M-1.4580861758416614 236.48886052918218 C-0.22275709759150586 158.40111567731674, -1.0506536272880242 80.23614435191334, -0.944957691013649 1.5457815391309242 M0.7297254854581829 236.97827311640347 C-0.7660120653081229 160.26668508785315, -1.3298350577946059 82.04264699063674, 0.1609508715950838 -0.37507837824059126" stroke="#000000" stroke-width="1" fill="none"></path></g><g transform="translate(468.0873446627329 215.6765708800856) rotate(0 227.26360719595368 118.6004638671875)"><path d="M-0.8416262463176044 -0.8689131493128183 C179.7991407782755 1.133821757750298, 357.7411424023162 2.421891879711228, 454.71737376922545 -0.46493901473956534 M-0.44489520703738167 -0.22140003553274076 C129.9302082151317 -1.5813236643752688, 260.5605692091882 -2.0414524651267882, 454.2478214409035 0.3127692086325795 M455.998827041745 0.033848419376982755 C454.31599663619704 68.87423474953765, 452.785271749207 141.26135851791753, 454.10232588666116 237.50026563151363 M455.03171937129423 -0.0514405389222643 C455.11888982166823 63.41525785224768, 453.89942656752 125.63607640039342, 453.79880156023347 237.10116366024425 M454.1771276079019 237.9246362791251 C359.34597625800643 237.06560966044557, 263.3634532244248 236.5332121025724, -0.3875314323447052 236.29765253079455 M454.6755059333792 237.57785055403153 C345.1991485560316 238.51883979965805, 236.6770646692805 238.59173640649212, -0.3442503196834265 237.07415036699192 M1.0909582424262956 237.61707680620134 C2.0625111928384325 162.9171706874226, 2.113134126797285 83.76505400043905, -0.5328416229714421 1.4522026978608822 M0.16304868524312244 237.53331272232592 C1.1493856293475113 143.90580035969927, 0.35114054004784695 49.15464584385731, -0.13681899400191902 0.4701255011395954" stroke="#000000" stroke-width="1" fill="none"></path></g><g transform="translate(173.57647493908553 317.39804468780494) rotate(0 63.5 17.5)"><text x="63.5" y="25" font-family="Virgil, Segoe UI Emoji" font-size="28px" fill="#000000" text-anchor="middle" style="white-space: pre;" direction="ltr">RENTALS</text></g><g transform="translate(595.0913611404039 313.44720258484324) rotate(0 95 17.5)"><text x="95" y="25" font-family="Virgil, Segoe UI Emoji" font-size="28px" fill="#000000" text-anchor="middle" style="white-space: pre;" direction="ltr">PROPERTIES</text></g><g transform="translate(84.97386390975998 534.4178346539896) rotate(0 388.25583386777066 139.8556381908815)"><path d="M-0.009118793904781342 -0.1733005777001381 C202.46510411047248 -1.052576430666283, 406.1495336188537 -2.014585812914208, 776.1917303171401 -0.49912364631891254 M-0.2245999224483967 -0.0628565065562725 C194.62109519819327 1.4832728511933904, 388.9259814504267 1.1363245851640322, 776.3628533307855 -0.22013196870684626 M776.387269565578 0.12275985506041973 C777.5662032795874 57.505980529440905, 775.735807236525 111.88653645972923, 775.9301553370891 279.6609504231858 M776.5459555009428 -0.32134199438499855 C776.1368677656335 101.50252618643509, 776.0324363127864 201.17339024762032, 776.3623078120853 279.2698872983804 M776.2685345258956 279.4281135718546 C598.9475572493195 282.4000791324934, 421.31852485799755 281.5033682121595, 0.09824848324060441 279.86381088897804 M776.344943398649 279.7608102503441 C563.4805801356565 282.81926382698015, 350.5837576136309 282.48143879093124, -0.11930948570370675 279.7230919781349 M-0.7002983905410368 280.6659903858044 C-1.8274776660991674 200.50387288394805, -0.9273165597304126 119.46868584344755, -0.09148546559942791 -0.6025864532789991 M0.12694704480969887 279.88745511004134 C-0.8135423699099966 169.39623597705074, -1.67790686033342 60.794797607232724, -0.25990564561639495 -0.568126556448273" stroke="#000000" stroke-width="1" fill="none"></path></g><g transform="translate(87.00150645873418 534.8427577679122) rotate(0 138.65725389167437 138.65725389167437)"><path d="M-0.16851669922471046 1.5304117240011692 L275.8188370437874 -1.5222693644464016 L275.8500165910973 276.86016661390204 L0.497409638017416 275.7751445220365" stroke="none" stroke-width="0" fill="#868e96"></path><path d="M-1.1421704503256245 0.3819498418531124 C58.07362699283262 -0.16717730289535537, 113.6875746043954 -0.39734803999235047, 277.3696012965395 0.6448720154845136 M0.06799612267655135 0.41294233571447986 C94.07931386078464 2.0194232963618117, 188.33021240359324 2.0528067496181546, 277.4164015766538 0.4000906242919471 M277.63037366650923 0.850686185821065 C279.55267219364544 71.25979826735869, 278.9437946099962 142.19080660246306, 278.58083388212924 277.0126457747397 M277.7022369417904 -0.2149556374402077 C276.5240216220846 77.34738187213625, 276.4676493246779 153.40770165214474, 277.2146339955289 277.2627234572145 M276.33464047736953 277.792765556786 C184.37031937114998 280.47333404890185, 92.51603820873521 278.4017437319854, -1.4730632624126627 276.320692945884 M276.85649639540253 277.8031480823238 C201.48532496497265 275.7881611477675, 124.49628338478841 276.1149305229984, -0.3031606726142797 277.4987342016375 M1.478062041969054 275.9348582045383 C0.25320056275281533 178.87789054683032, 1.0490773292206952 82.66417613648166, -0.1345150883880582 -0.4638092270231993 M-0.2114902573739445 277.9140964553707 C-1.4623461663925852 170.22516033100504, -0.8565520944776105 63.98355582871244, 0.09761316808527909 0.4264864572828913" stroke="#000000" stroke-width="1" fill="none"></path></g><g transform="translate(382.4716957952546 553.2199422799224) rotate(0 67 17.5)"><text x="0" y="25" font-family="Virgil, Segoe UI Emoji" font-size="28px" fill="#000000" text-anchor="start" style="white-space: pre;" direction="ltr">HEADING</text></g><g><g transform="translate(389.9721877203947 611.7411788704076) rotate(0 209.57771527371824 -2.2400881711115517)"><path d="M1.0493815518915655 0.29689135774970055 C70.86339385457957 -0.6882235294736159, 349.5921209875804 -4.192698204595214, 419.01426241014144 -4.777067699972827 M0.14116813729517164 -0.5928446247708052 C69.8595065185769 -0.9138197140085678, 349.11432017958094 -2.8055011459007764, 418.50865016280665 -3.545858797775868" stroke="#000000" stroke-width="1" fill="none"></path></g></g><g><g transform="translate(392.5168071525313 634.5090913223081) rotate(0 209.09495336286273 -1.8742453757395197)"><path d="M0.36526254191994667 1.1881610177457331 C70.19306039758645 0.4454739564501512, 349.43629329840957 -4.151082170087462, 419.0920200786366 -4.936651769224841 M-0.9021133529115468 0.7663416067231448 C68.83724799666243 0.20506895202517716, 348.8766829535954 -2.7420366932764555, 418.62723060726177 -3.7892245033851895" stroke="#000000" stroke-width="1" fill="none"></path></g></g><g><g transform="translate(393.6063302402172 657.2565296676905) rotate(0 209.28070041320734 -2.8842205398764236)"><path d="M1.1272344209253788 -0.0672675110399723 C71.02597725339852 -0.6249791389859448, 348.896637064622 -3.097143328267699, 418.3015070638432 -3.790388861242968 M0.25989376257173724 -1.1481868996750564 C70.10744620177582 -2.0373720185148696, 348.0537071970694 -5.404779959501316, 417.4216982597018 -5.701173568712834" stroke="#000000" stroke-width="1" fill="none"></path></g></g><g><g transform="translate(392.16899785915393 678.067741552602) rotate(0 209.57329767168494 -1.9542654220062445)"><path d="M0.6223032496869563 0.8001656390726566 C70.0231918016883 0.3184813567840326, 347.6462239254576 -2.1897839353267012, 417.36709615055463 -3.139584214929778 M-0.510126273566857 0.17464865424670295 C69.18819838791774 -0.5985947624656537, 349.80682715984364 -4.021056885266295, 419.65672161693675 -4.708696483085219" stroke="#000000" stroke-width="1" fill="none"></path></g></g><g transform="translate(396.3923691888135 703.3760382580934) rotate(0 41 10)"><text x="0" y="14" font-family="Virgil, Segoe UI Emoji" font-size="16px" fill="#000000" text-anchor="start" style="white-space: pre;" direction="ltr">ADDRESS</text></g><g><g transform="translate(493.8577097224738 712.49972288131) rotate(0 156.59557800672314 -1.7937076437431756)"><path d="M-0.27874185070395474 -0.7478753305971622 C52.03580621458381 -1.615066135904601, 261.351493139927 -4.558894135462299, 313.4698978641503 -5.061301462986535 M1.7757799483370036 1.4738861755002293 C53.97844611110887 0.7453790257528069, 260.4024164295371 -2.6407813676299448, 312.57955869132326 -3.843512998960009" stroke="#000000" stroke-width="1" fill="none"></path></g></g><g transform="translate(393.60865743751083 765.8998306662241) rotate(0 13.400551124855383 13.400551124855383)"><path d="M0.3846323527395725 -1.4117009080946445 L26.58656761312386 0.1985573135316372 L27.36118373536965 26.49449648970267 L-0.16664135083556175 26.85645606630942" stroke="none" stroke-width="0" fill="#868e96"></path><path d="M-1.6438398994505405 -1.795786377042532 C5.136344017062655 0.4548535302204729, 9.731404489972334 0.7184451773686052, 25.28380575293204 -1.419196005910635 M0.6530632395297289 0.01563533954322338 C11.439977659147123 -0.17278453814958217, 22.0390888103319 -0.06387582528566005, 26.559664578004686 -0.43785092420876026 M27.344475651918856 1.177497986704111 C26.01253940555238 10.993133785463304, 25.855154652325147 19.24883687548226, 25.979865337549654 24.87411532068154 M26.72014841513237 0.27745106630027294 C27.604535886029847 5.895391612797384, 27.39993644593204 11.590753347648988, 26.430507809682695 25.836887654676048 M28.693519855677096 27.69135985040566 C19.32065227555301 25.871212560556074, 10.109096798700406 26.82666059198155, 1.9501057229936123 28.35445687436959 M26.682223946615068 26.426533517255393 C15.29872158477194 26.576464081137622, 5.899901306058698 27.116849387019123, -0.5719081144779921 26.224508282556144 M1.3724089227616787 26.352212878703085 C-0.1749966014030091 21.255328617271022, 0.6455620657799133 16.459107350223725, -1.3943086303770542 -0.671896930783987 M0.4541457910090685 26.872580048455802 C0.2860726433414991 20.405805421084587, 0.09341702038236216 14.20920100550536, -0.6941946130245924 0.531834689900279" stroke="#000000" stroke-width="1" fill="none"></path></g><g><g transform="translate(435.36828968939244 779.9896269444362) rotate(0 33.45662666341195 -0.21091015474115693)"><path d="M-0.8330335356295109 0.6382016278803349 C10.435580755043475 0.37310013179609314, 56.37631682837231 -0.9380104986514084, 67.7462868624535 -1.0600219373626032 M0.9304851288255302 -0.07234646282158796 C12.049493731343821 -0.2536208743049042, 55.9822297845859 -0.19370111299968584, 66.91940058993927 0.03271752780886805" stroke="#000000" stroke-width="1" fill="none"></path></g></g><g transform="translate(538.0337458254598 763.2400541905299) rotate(0 13.400551124855383 13.400551124855383)"><path d="M1.0108208023011684 1.3309478797018528 L24.9862033378472 1.014625433832407 L27.78541877382895 28.744037958620993 L-0.5503951944410801 26.67467138433358" stroke="none" stroke-width="0" fill="#868e96"></path><path d="M-0.4554239474236965 0.2306339107453823 C6.969523639284637 0.08627775937596255, 13.503727970377737 -1.0476961967321308, 26.167958828448263 1.5339122377336025 M-0.34136209078133106 0.1105158943682909 C8.053059973338867 0.43259772179455497, 15.219605374251056 0.017898107746550818, 27.374992069615928 0.23549664206802845 M25.932163807391134 -0.5275492109358311 C25.224874380410235 9.115368150790365, 27.826890710175554 14.170452107975546, 27.370903226374594 27.66404678934714 M25.8510209888359 0.627456309273839 C26.74129994021976 7.890558516742248, 26.75826681958759 13.861548373746789, 27.223271724595634 27.343824417157975 M28.17304155492684 27.68330433481833 C20.229774085660107 26.26884799776823, 11.896984063903139 26.080835040195293, 0.2187635935842991 26.73852815741202 M26.657140609635917 27.628774196668473 C20.0021240313411 26.821830684584555, 12.366667313275777 27.386237973612722, 0.7728733699768782 26.171544403596727 M-1.6999537907540798 28.331668759523836 C1.9033712046022175 16.38095855284591, -0.038107643855118944 5.5716629885019735, -0.6807624064385891 -1.0821211971342564 M-0.5419607479125261 25.813839764161912 C-0.237919081641649 18.44481214808571, 0.8047626719937575 8.452251283108136, -0.6355341393500566 0.1315594334155321" stroke="#000000" stroke-width="1" fill="none"></path></g><g><g transform="translate(579.7933780773419 777.3298504687418) rotate(0 33.89997821828251 0.3201158999634117)"><path d="M-0.2732543684542179 0.1383803464472293 C10.928971982765644 0.06105350856611258, 56.63271464789136 0.04113550507173602, 68.07321080501943 -0.1143903379363338 M1.7841483587678524 -0.8345739170070738 C12.801915353620126 -0.7294919747306244, 56.37323645935244 1.2994965426781095, 67.4179596023523 1.474805716933929" stroke="#000000" stroke-width="1" fill="none"></path></g></g><g transform="translate(680.3301483681385 764.3966138874337) rotate(0 13.400551124855383 13.400551124855383)"><path d="M-1.9532524310052395 -1.4480970539152622 L25.708212706088034 1.1288397870957851 L25.026465150355307 27.293679262339083 L1.1849765814840794 26.8056670677056" stroke="none" stroke-width="0" fill="#868e96"></path><path d="M-0.5503951944410801 -0.12643086537718773 C10.455682052549344 -0.692241702337923, 19.635888785623752 -1.5932656862933063, 26.308292175470797 -0.43509363755583763 M-0.32290696911513805 0.9576938431710005 C11.01725115437579 -0.5253921899206806, 20.56517485709035 -0.7473531517393757, 26.733194262548295 0.013551680371165276 M28.372410560785738 0.6234838999807835 C26.815727611947583 8.42954857292866, 27.593649407792615 15.943380732448801, 26.192626143633333 27.050985785960165 M26.29893627838692 -0.05360177345573902 C27.563361316908935 5.183894854743218, 26.24618062375937 11.086642261140417, 27.07584878878197 27.091289755715934 M27.4771119605889 26.46585604810616 C21.053259112163424 28.485227902696604, 12.86090879669693 27.184995849893564, 0.7152766548097134 25.920506569384543 M26.94131919817528 27.213421580209342 C16.80080579644183 26.980916987927685, 8.247574575494507 26.581667970689068, -0.5694408994168043 27.31944650114974 M-1.4429560340940952 25.870380493639914 C1.376413364327196 15.763423271537135, -1.280563216292616 6.138891739131626, -1.0133730806410313 -0.5319756232202053 M0.38823837228119373 27.455570635213462 C-0.3529089707726249 17.94257905706816, 0.10882192665398033 8.768056030558597, 0.9823544044047594 -0.7705449778586626" stroke="#000000" stroke-width="1" fill="none"></path></g><g><g transform="translate(722.0897806200205 778.4864101656456) rotate(0 33.90934438040381 -0.1160161704959819)"><path d="M-0.33023711666464806 -0.07585851922631259 C10.929485543835609 -0.3488400831358717, 56.75770983928665 -0.3159806532348626, 68.14892587747245 -0.47212795811121855 M1.6972496677469464 -1.1612881871592253 C12.802698534251824 -0.7445797020761507, 56.56385412623025 0.7548944012605464, 67.53342508784316 0.9292558461672296" stroke="#000000" stroke-width="1" fill="none"></path></g></g><g transform="translate(87.09942594604172 878.7916425621484) rotate(0 388.25583386777066 139.85563819088156)"><path d="M-0.6164359822869301 -0.7813009724020958 C256.07087378536687 -3.48839444493587, 513.7517611287043 -3.7610934672289607, 776.7086985405926 0.4739906325936318 M-0.09365887567400932 -0.20758766010403634 C233.4667911604285 3.089837135672092, 466.41010328759546 2.5431105512375827, 776.821349700207 -0.14188362434506416 M775.8642255361391 -0.5703053204303737 C778.8013725610583 79.8023107291753, 777.7692018000438 157.6364956698444, 778.0012435686914 280.15514637502565 M776.9384946526111 0.2883083745076615 C776.8801868498598 68.06853304173447, 776.7854040388996 135.312260628417, 776.7484900403924 279.8689879087524 M776.5348720845227 279.8084060619793 C535.8926817318697 282.5922916883665, 294.52326817365025 281.78354225103436, -0.4009295716881752 280.03992142185785 M776.1526938517038 279.68292966366033 C540.8333055537144 277.2700812673365, 306.07046098741426 276.88281055448397, -0.07792155668139458 279.9598138141654 M-1.4643453046922403 278.9975892672154 C0.46784870407325907 169.93429536222496, 0.5250388842018808 63.6133896261115, 1.189942572869052 1.496389767542066 M0.620911107603012 279.1408053326073 C1.4656680980603427 176.82356038601463, 1.5116138441548683 73.38952192548739, -0.12077953060495124 -0.1032634273340342" stroke="#000000" stroke-width="1" fill="none"></path></g><g transform="translate(89.12706849501637 879.2165656760708) rotate(0 138.65725389167437 138.65725389167437)"><path d="M-1.184938970953226 1.8109331168234348 L276.8669899673714 1.867504958063364 L275.6463384599938 277.1131001160993 L1.8504942022264004 278.52014345392126" stroke="none" stroke-width="0" fill="#868e96"></path><path d="M-1.5061650175751395 -1.1166365852355815 C102.88118909272843 2.518180472563993, 206.07941231252948 2.027554316069205, 278.22825054662206 0.0035199593592091655 M-0.40018031817841787 0.647843155636099 C88.62119832986859 0.7872393639356612, 175.59143024865705 1.097692035478019, 277.0409894349736 -0.12420739393348752 M276.7412324477164 0.8848050691965055 C279.1461942379825 101.25808611005947, 277.56430340159926 204.31898739780485, 277.76068934653796 276.4069686748673 M277.60431759967094 0.0013546709775934846 C278.211226721786 87.84583451072461, 278.00052964660455 176.11756813372517, 277.4730406346637 277.39605890036336 M277.50175102465727 278.36859782600686 C221.11464503921812 278.03806447379293, 162.04533123429638 276.6036345233035, 0.6335505523160899 277.362182229836 M277.25986195968096 276.6890837358595 C189.00814418120132 275.9094981295411, 99.45031207119838 275.2452285155672, 0.4791218742394529 277.98999582196745 M-0.7174038282160787 276.3505767518959 C-1.5603198711086324 211.65380302624538, 0.5457408428105947 149.00212381823644, 1.5041826114775112 1.0410779715277063 M-0.5734419274336809 277.8688217943247 C-2.1775458481727847 206.53630867001303, -2.819481017973546 134.43570297155242, -0.10380119883642498 0.060278383719037085" stroke="#000000" stroke-width="1" fill="none"></path></g><g transform="translate(384.59725783153726 897.593750188081) rotate(0 67 17.5)"><text x="0" y="25" font-family="Virgil, Segoe UI Emoji" font-size="28px" fill="#000000" text-anchor="start" style="white-space: pre;" direction="ltr">HEADING</text></g><g><g transform="translate(392.0977497566769 956.1149867785662) rotate(0 208.98998905712733 -1.8220893005516245)"><path d="M-0.8688582323491574 -0.6557337261736392 C69.09339015432322 -1.3368386036313304, 348.95951352755844 -4.7874009252373035, 418.84883634660383 -5.258580723349292 M0.8758524663280696 1.6144021222461014 C70.82025087568597 1.147042297900917, 348.75959380304744 -3.1024227948799634, 418.2563754159118 -4.280166158424977" stroke="#000000" stroke-width="1" fill="none"></path></g></g><g><g transform="translate(394.6423691888135 978.8828992304666) rotate(0 209.30198016931763 -2.594180686851246)"><path d="M-0.6557337261736392 0.6773038722574711 C69.0573832193824 0.17240486828915969, 347.18370818983135 -3.0868583486262615, 417.1067502147331 -3.898252256159026 M1.2008673382457347 -0.012715540146455151 C71.37534029990123 -0.8213614074203351, 349.71149066301365 -5.3890953655481235, 419.2596940648089 -5.865665245959821" stroke="#000000" stroke-width="1" fill="none"></path></g></g><g><g transform="translate(395.73189227649937 1001.6303375758494) rotate(0 209.02041417888836 -2.1207582658530555)"><path d="M0.6773038722574711 -1.0647822596132754 C70.56662669130289 -1.5359620577252637, 348.8842507664424 -2.9961427570167833, 418.46707868192334 -3.4828125148455684 M-0.42625032414682207 0.9906031087506562 C69.40693659457997 0.23337903040766894, 348.03481809234546 -4.64075408834367, 417.67419497727406 -5.2321196404568" stroke="#000000" stroke-width="1" fill="none"></path></g></g><g><g transform="translate(394.2945598954361 1022.4415494607606) rotate(0 208.90886808181176 -1.9477566826810744)"><path d="M-1.0647822596132754 0.2955462075769901 C68.85825976528845 -0.5158476999557743, 348.97496635805186 -3.263820175904398, 418.8825184232368 -4.191059572939116 M0.5770683247502895 -0.5948959787841888 C70.46167703240796 -1.2609465739938597, 348.78315936954994 -1.9989621521472833, 418.30774058277706 -2.652196404049459" stroke="#000000" stroke-width="1" fill="none"></path></g></g><g transform="translate(398.51793122509616 1047.7498461662522) rotate(0 41 10)"><text x="0" y="14" font-family="Virgil, Segoe UI Emoji" font-size="16px" fill="#000000" text-anchor="start" style="white-space: pre;" direction="ltr">ADDRESS</text></g><g><g transform="translate(495.98327175875556 1056.8735307894685) rotate(0 156.59704680981895 -2.761911153737856)"><path d="M0.7109859488904475 0.0027388907968997067 C53.14994612164585 -0.9676123435113938, 261.50764235294304 -4.680232638525024, 313.56897877691915 -5.526561198272771 M-0.3748851572815328 -1.0414271368738264 C52.0175094693785 -1.9272539408475517, 260.64054397938656 -4.045822584800601, 312.73065708329574 -4.553034095271519" stroke="#000000" stroke-width="1" fill="none"></path></g></g><g transform="translate(395.7342194737935 1110.2736385743829) rotate(0 13.400551124855383 13.400551124855383)"><path d="M1.2394542060792446 1.6939816512167454 L24.98938813322684 -1.252116795629263 L25.871260429560152 26.40660175943276 L1.0668337903916836 27.934998246668783" stroke="none" stroke-width="0" fill="#868e96"></path><path d="M0.34832942858338356 -1.7901528514921665 C8.232116640608615 -1.0385500112893358, 19.08111762826861 1.5478282054541335, 27.544298264025656 -1.1851930059492588 M0.6568886321038008 0.6711602825671434 C9.693284973468094 -0.32855231128255524, 20.80429488599938 0.30025851168115936, 26.702062067403403 -0.7686401586979628 M27.143342110156027 0.2603035531938076 C27.99145745051072 11.394121247035166, 26.882154810549476 22.88883600508551, 26.5574996199598 27.858561540781466 M25.874929365529624 0.7087076921015978 C26.885208465530503 8.989145430614727, 27.539695181324113 18.58513683428899, 27.230052110566703 26.63983562664589 M27.206195565699545 25.060558344065157 C18.30907146132867 26.667653690174543, 11.78463183571756 28.11893821795317, 1.3332927264273167 26.174299622713534 M26.136149999513236 26.89103296475014 C18.32841314236346 26.570701198385045, 11.139601379818176 26.14883376817493, -0.5877549964934587 27.279666513963548 M-0.8521482907235622 28.75096073263785 C1.3574272920763593 15.194755894326104, 1.1763091613924603 6.322446167098342, 1.557500246912241 -1.9055812992155552 M-0.592469485476613 27.706568808122483 C-0.1876810419114735 20.116499950090763, -0.7980067956002858 11.463688858782673, 0.9252471011132002 0.6028178352862597" stroke="#000000" stroke-width="1" fill="none"></path></g><g><g transform="translate(437.49385172567463 1124.3634348525948) rotate(0 33.04705676080107 -0.08211332982318709)"><path d="M0.20899765715003005 -1.0740917108952999 C11.296255136299578 -1.213842254831104, 55.848749632479986 -1.134123417505168, 67.23453082378774 -0.8357643728179255 M-1.1404173021856696 0.976406195545569 C9.702022162759375 0.9862919860886198, 54.56768981085009 0.7272266857483303, 66.13897263097397 0.37471031373950137" stroke="#000000" stroke-width="1" fill="none"></path></g></g><g transform="translate(540.159307861742 1107.6138620986885) rotate(0 13.400551124855383 13.400551124855383)"><path d="M-1.8117141164839268 -1.252116795629263 L25.871260429560152 -0.3945004902780056 L27.86793604010245 27.934998246668783 L-1.7063308395445347 28.505146595477072" stroke="none" stroke-width="0" fill="#868e96"></path><path d="M-0.4682943783700466 -1.0379383005201817 C9.72674337291606 1.7883302643005519, 16.83609157952443 -0.9453026578719945, 28.349512073039023 -0.7094181217253208 M-0.42200020141899586 -0.3717226963490248 C8.182351360473735 0.077209773024422, 15.118213466189706 -0.9485185122882306, 27.772001740350333 0.28931266255676746 M27.91391846799752 0.7516729198396206 C26.850477855504877 8.067117026286033, 26.6033616474284 13.983814642253929, 27.418541523455588 27.212285185991732 M26.83010768593749 0.12141210027039051 C27.236369860032617 9.173445578543696, 26.98182756886822 16.486284186821884, 26.299940285100547 27.21190854982933 M25.00623283052346 26.6593686591973 C17.055773589421456 27.87741071104933, 11.888033006766722 25.94105714678694, -0.3896077834069729 28.043789411722628 M25.846647915258018 26.335923881097642 C15.787967077820035 25.938158873779127, 5.437139557642794 27.303768936855146, 0.7755997460335493 27.77644303516945 M1.6188293732702732 25.31377937906882 C1.5519038099443665 16.710940985727763, 1.6716928142702332 5.196416648783192, -0.3148944340646267 -0.26922673359513283 M-0.2237589079886675 27.734854728742448 C-0.6752963090765574 18.450560001421934, 1.0840354537141226 10.9042432556688, 0.6197271030396223 0.8469908256083727" stroke="#000000" stroke-width="1" fill="none"></path></g><g><g transform="translate(581.9189401136241 1121.7036583769004) rotate(0 34.121354088987346 0.3729644458724124)"><path d="M-0.28097662702202797 -0.622762980312109 C11.104804564285722 -0.32440393562486636, 57.14995119059308 0.7662882598553663, 68.52368480499653 0.7160625572281558 M1.7723719144519419 1.6646825096849351 C13.070060040438246 1.7326854228781325, 57.16202218697256 -0.6446455062768541, 68.10493245231739 -0.918753617940224" stroke="#000000" stroke-width="1" fill="none"></path></g></g><g transform="translate(682.4557104044211 1108.7704217955925) rotate(0 13.400551124855383 13.400551124855383)"><path d="M-0.9298418201506138 -0.3945004902780056 L27.86793604010245 1.1338959969580173 L25.09477141016623 28.505146595477072 L-0.07538551464676857 27.866924735545126" stroke="none" stroke-width="0" fill="#868e96"></path><path d="M1.6802955903112888 1.5484399162232876 C6.384623208455477 -1.0461035533435967, 12.831264211609431 -0.5703286691196587, 26.478948446749655 1.3137772642076015 M0.5737245362251997 0.2570881266146898 C9.740074028508547 -0.6690143787640788, 20.649127912271386 0.38893844249065146, 26.212636527433006 0.1711199302226305 M26.804615828036276 1.603939350694418 C26.706623126216996 9.446611073239444, 27.567665029712785 17.189486500618454, 27.012619468211142 24.948756481348482 M27.4845944017311 0.849670173600316 C27.237825887187803 9.7784787839655, 26.307714061721647 20.290297114179317, 26.832015272988883 27.003648907705156 M25.178954574107138 28.110653186975924 C22.4264890604908 26.155306540455683, 14.995682635009222 28.024796329464778, 1.7519974745810032 25.471197749315706 M26.17607092560729 25.91405645088753 C17.931992349388096 27.15499358374801, 11.01399218808589 27.65177010495391, 0.6750548761337996 26.375028104348985 M1.4377112425863743 26.560493136583773 C1.340568189122982 14.242272446912246, -0.5318264918538856 5.225378508949703, 0.15634262934327126 -1.184938970953226 M-0.8340846616774797 26.700398416086045 C0.9852169548360792 16.936839228515183, 0.6796969567625013 6.713931362355449, -0.9058570582419634 -0.6260583978146315" stroke="#000000" stroke-width="1" fill="none"></path></g><g><g transform="translate(724.2153426563032 1122.8602180738044) rotate(0 34.01987839759704 0.002473376829357221)"><path d="M1.0081773541867733 0.9290639497339723 C12.381910968590228 0.8788382471067618, 56.722029060962036 -0.6628311601962082, 67.96142505939869 -0.9241171960753718 M0.07833173579536368 0.37121857800520974 C11.357647307002619 0.5176297515438661, 55.89944093928523 0.22594737814449473, 67.24748634028069 0.23997225827189617" stroke="#000000" stroke-width="1" fill="none"></path></g></g><g transform="translate(91.72751839395823 1234.5702985680075) rotate(0 388.25583386777066 139.85563819088145)"><path d="M0.6731686130166055 0.1221189245581627 C170.44697330241314 -2.3381699174425044, 340.3682892833136 -2.8834861844560544, 777.0297000971084 -0.45987479835748674 M0.12001839801669122 -0.19190933629870416 C212.29411089495977 0.4807294455402385, 423.67905467974464 -0.06377436248130691, 776.5480386678521 -0.3387264244258404 M776.2009811221443 1.405537699535962 C776.0715309532201 66.36486324263342, 777.2571523482226 130.36553090754845, 775.9821260089866 278.3492614942753 M776.4096224251264 0.5592333135987282 C774.9119409226188 60.63086694773982, 774.1552905046127 119.93370525333447, 775.8934361788137 279.21743616506683 M776.1683390226607 279.69097692176916 C483.3689826005113 278.04046016607725, 191.13637575111582 278.23973923597777, -0.2404052719473839 279.9083942095957 M776.2277758304422 279.9651253405235 C555.6665425456721 281.11148419979645, 334.75576015811885 281.38958018425535, -0.20821472480893136 279.3782951298378 M0.8183207162315178 280.77836641539585 C-0.6870002249142594 178.5056561153981, 1.1473402838355615 75.60596616330614, -0.7445651279126448 -0.2072608980230347 M-0.26234686330451046 279.4382624594302 C-0.34470091782416057 167.59184621265686, -0.2510249787673961 56.65815522058535, 0.3970394723607594 -0.01496293328332601" stroke="#000000" stroke-width="1" fill="none"></path></g><g transform="translate(93.75516094293289 1234.9952216819304) rotate(0 138.65725389167437 138.65725389167437)"><path d="M0.03145003691315651 -1.8752681650221348 L276.24491399988074 1.6384782157838345 L276.29646188482184 279.22093999102253 L1.3890966214239597 278.39752053930897" stroke="none" stroke-width="0" fill="#868e96"></path><path d="M0.23541664307406263 0.7761325320164207 C62.93141439481074 -1.2604496584996756, 123.54070665173288 -0.8007258150750395, 276.42797703755826 -0.41715208397720915 M-0.36995618729425217 0.663975481855301 C61.693286636801 -1.066325122247495, 121.83361313796459 -0.5715005197125091, 276.6615226866709 -0.5074523679370753 M278.7273651907412 0.3250674693553014 C276.7872268379641 74.84331498909101, 275.274013711904 146.12060392333575, 275.9453998445143 275.9891081890114 M277.87665345175697 0.10714089715400545 C277.37159154173213 60.488146292235015, 276.79686083201784 121.6617413785225, 276.81809576362286 277.90550438486616 M277.2753751857988 276.01281623886786 C187.48918400525642 275.5478291077711, 99.18472424691083 275.9333497481585, 0.3799969372996185 277.0728957585546 M277.80386903456724 277.2047954287691 C205.7361833523938 275.45083286439217, 134.66179723032556 275.3954400986834, -0.6419097516495178 277.81955980856134 M1.0726471861057703 276.8291592979795 C3.0490879517437204 192.84001153614255, 2.379584011220662 104.8999829722992, -0.20834026375196954 1.5161198267385738 M-0.27443571425837626 277.63229018821875 C-2.041797640872799 185.99130085205306, -1.561731554919461 94.24330870865337, -0.01504085670035456 0.3448262951498403" stroke="#000000" stroke-width="1" fill="none"></path></g><g transform="translate(389.2253502794538 1253.3724061939404) rotate(0 67 17.5)"><text x="0" y="25" font-family="Virgil, Segoe UI Emoji" font-size="28px" fill="#000000" text-anchor="start" style="white-space: pre;" direction="ltr">HEADING</text></g><g><g transform="translate(396.7258422045934 1311.8936427844258) rotate(0 209.02634705518835 -1.517010723399153)"><path d="M0.6039110206067562 0.9888757087290287 C70.20076362290108 0.28786311833493605, 348.8667568672758 -3.0441494271937666, 418.5908685332908 -4.022897155527312 M-0.5381744229141623 0.4624315104726704 C68.8489954152672 -0.035287576100526075, 348.0081398961164 -1.663964260363569, 417.8629745006094 -2.395748717496458" stroke="#000000" stroke-width="1" fill="none"></path></g></g><g><g transform="translate(399.27046163673003 1334.6615552363262) rotate(0 209.19566525451364 -2.3560190632427975)"><path d="M0.9888757087290287 0.4193360589444637 C70.68208494134866 -0.25077409805424333, 348.9269596878749 -2.5937962890449815, 418.3424337825551 -3.4167499213854855 M0.048896726472303254 -0.4061164554487915 C69.58301042589979 -1.4667093310940247, 348.09994919753 -4.6371757246866725, 417.4841115057374 -5.131374185430173" stroke="#000000" stroke-width="1" fill="none"></path></g></g><g><g transform="translate(400.3599847244159 1357.4089935817085) rotate(0 209.0644648886239 -2.3563546765318506)"><path d="M0.4193360589444637 0.17090130820870408 C70.14344772495949 -0.8078464201248416, 349.3773128260237 -3.997464709061747, 418.9485810166969 -4.883610661272246 M-0.8196512394491584 -0.784979450320825 C68.76158867090628 -1.7062446222516874, 348.7867377332069 -3.1177700652122398, 418.4084860378037 -3.7083368137574824" stroke="#000000" stroke-width="1" fill="none"></path></g></g><g><g transform="translate(398.92265234335264 1378.2202054666202) rotate(0 209.31650458757758 -1.8706685963740028)"><path d="M0.17090130820870408 0.7770485423505307 C69.58637540288888 -0.045905089989973225, 347.9736444060069 -3.675767338353759, 417.4817202768101 -4.518385735098559 M-1.198514234321192 0.13939508174546056 C68.52205337974863 -0.544284093796013, 349.6961433926814 -2.6271815748825573, 419.8315234094764 -3.1513688013426098" stroke="#000000" stroke-width="1" fill="none"></path></g></g><g transform="translate(403.1460236730127 1403.5285021721113) rotate(0 41 10)"><text x="0" y="14" font-family="Virgil, Segoe UI Emoji" font-size="16px" fill="#000000" text-anchor="start" style="white-space: pre;" direction="ltr">ADDRESS</text></g><g><g transform="translate(500.6113642066721 1412.6521867953281) rotate(0 156.96502757404755 -2.4309600665611697)"><path d="M-0.68981219753623 -0.32458727136254306 C51.34967178083746 -1.2103175053809194, 260.00616375989165 -3.7533978242745545, 312.4078051784509 -4.537332861759728 M1.1488976694177837 -1.540599534166977 C53.5420910996457 -2.297379312698579, 262.6207891249831 -2.632399493068635, 314.6198673456316 -3.044460882089129" stroke="#000000" stroke-width="1" fill="none"></path></g></g><g transform="translate(400.36231192171 1466.052294580242) rotate(0 13.400551124855383 13.400551124855383)"><path d="M-1.891257043927908 -0.8687674440443516 L26.527810784815756 -0.05230194702744484 L26.13381728792092 28.288711692034212 L0.3953903950750828 28.690862919031588" stroke="none" stroke-width="0" fill="#868e96"></path><path d="M-1.5869599021971226 -0.14143895730376244 C10.375902451373793 -0.887052542754003, 21.273758548841194 1.3778513602535043, 25.699541951357332 -1.4171618185937405 M-0.35583787970244884 -0.6502911169081926 C8.081521668491462 1.092497447516809, 16.778831854502755 0.7361504230760437, 27.78466543631157 -0.4214195925742388 M25.21065130346915 -0.6576260291039944 C26.297123035595362 8.573306214211371, 26.841062745258753 16.202313561286502, 25.106264377771822 27.28218588495156 M26.999226421876756 -0.3480853755027056 C26.199404947012273 5.854997506392916, 25.78452413484415 11.02368517039303, 26.250616700216142 26.313142594709007 M25.965670849024264 27.69195971155068 C18.146702833655688 28.0283588662529, 12.046664109058597 26.842541028537752, -0.8974027074873447 28.275009128092734 M26.896253735586015 25.858476933850852 C20.68924573327213 27.672166600556434, 13.19592372033813 27.646710231633246, 0.8809064645320177 27.03705167473754 M0.6159649454057217 28.04498192930123 C-0.6477803937212383 19.349643742680712, 0.8604308613523091 11.475476362944963, 1.0684551559388638 -0.6011676751077175 M0.015725018456578255 25.8634681671997 C-0.5295691870465391 18.192846099738397, -0.5037952445759886 8.899327837819083, 0.6945483107119799 0.541506377980113" stroke="#000000" stroke-width="1" fill="none"></path></g><g><g transform="translate(442.12194417359115 1480.1420908584544) rotate(0 33.46169335177069 -0.3642909730615429)"><path d="M-0.9521759413182735 -0.08486337438225755 C10.475386532414404 -0.16222039605548855, 56.29206831687912 -0.897908787199401, 67.87556264485984 -0.7887294014019289 M0.7487929601501673 -1.1750205912720413 C12.110197541834486 -1.069984679278566, 55.85375080455876 0.47745399696462515, 67.11654615810892 0.4464386451488962" stroke="#000000" stroke-width="1" fill="none"></path></g></g><g transform="translate(544.7874003096586 1463.3925181045481) rotate(0 13.400551124855383 13.400551124855383)"><path d="M-0.27329146489501 -0.05230194702744484 L26.13381728792092 1.4876094423234463 L27.19649264478585 28.690862919031588 L0.6372687853872776 28.402641678987948" stroke="none" stroke-width="0" fill="#868e96"></path><path d="M0.600091990083456 -0.9595466814935207 C9.03752691377857 1.3243108212979395, 13.529218276682672 -1.3982082188097875, 26.982956911264864 -1.693632122129202 M-0.20250427536666393 0.9161237757652998 C6.487373924184641 0.7340619384878853, 13.536751101397078 -0.24713440541088788, 26.455949098630754 -0.8877557832747698 M26.535051370798556 1.4580240286886692 C26.865861888295093 7.708754393036042, 24.89313518560497 11.95509404083068, 25.189258958040682 25.51357004308602 M26.37194135861 -0.02537432499229908 C26.01016000840548 9.357381044536815, 26.303716162179743 19.700919418826672, 26.500595659776536 27.04749953450164 M25.381642724215 28.070347043513266 C18.89609498786764 27.003909015421563, 10.662801737604266 28.39438893771618, -1.0410736240446568 25.136195990084616 M27.33448037581047 27.496627208604423 C16.69066841098146 27.21853686494596, 8.09055952537608 26.784417700002265, -0.48530453257262707 26.666010436429588 M-0.6839864887297153 26.089304777621237 C0.7416820689235507 14.279702038479755, 0.9859124585185824 4.849741785910535, 1.0351548753678799 -0.039011117070913315 M-0.534796891734004 27.620341357602683 C-0.513237427538787 18.515485442074002, 0.6903338324366464 8.864942804743563, -0.945628521963954 -0.4343837220221758" stroke="#000000" stroke-width="1" fill="none"></path></g><g><g transform="translate(586.5470325615406 1477.48231438276) rotate(0 33.81936773407642 0.29761827874756364)"><path d="M0.3600551940500736 -0.5757280088961124 C11.943549522030798 -0.46654862309864026, 57.46637068027481 0.6514746861969001, 68.54879002656608 0.5702129404025753 M-0.9100545584131032 1.73641084109433 C10.689146100999487 1.5159147744806274, 57.03456190873719 -0.8197362061060154, 68.14321791521094 -1.1411742835992347" stroke="#000000" stroke-width="1" fill="none"></path></g></g><g transform="translate(687.0838028523376 1464.5490778014516) rotate(0 13.400551124855383 13.400551124855383)"><path d="M-0.6672849617898464 1.4876094423234463 L27.19649264478585 1.8897606693208218 L27.438371035098044 28.402641678987948 L-0.09020936116576195 28.305029417215792" stroke="none" stroke-width="0" fill="#868e96"></path><path d="M1.722137626260519 1.3053572215139866 C6.749234378720265 -1.288577274973348, 15.883444015701496 -1.5650475785088094, 25.48493495100638 -0.7116757594048977 M0.2107799667865038 0.5597767513245344 C7.281041989880526 -0.6669508624510079, 12.249804455479431 -1.1332870531515389, 25.94168779329857 -0.7952254731208086 M27.078991080461947 1.9717491902410984 C25.070612093725064 7.640159187749653, 25.153606673993924 13.030618898392973, 28.333956266581026 27.197350594042746 M25.95706054644188 -0.7370584923774004 C26.135596850976455 6.619463845863773, 26.38557581053685 14.46124428652194, 26.644436389966813 26.383386549367515 M26.516543890177218 26.884529205798117 C16.669570771075726 28.445094925585803, 7.2917710833707154 25.306281787577685, 1.3099415861070156 26.991405221461264 M26.48639300541481 27.471170839681236 C22.1680177866823 27.22346003014289, 15.287815862017169 26.852418791834936, 0.983081104233861 27.109084722413627 M0.824224766343832 24.95479843282601 C1.1601131150481925 16.492736575737744, 1.1268128344772086 7.3476951349092445, 0.8943678699433804 0.03145003691315651 M-0.5090229492634535 27.75431835354766 C0.8378797724938853 21.815240644596933, -0.8022970601820485 15.3119825615007, -0.136645732447505 -0.02615097351372242" stroke="#000000" stroke-width="1" fill="none"></path></g><g><g transform="translate(728.8434351042197 1478.6388740796635) rotate(0 34.668075756439066 -0.14004207537686852)"><path d="M1.0332825757563115 0.7832143329083918 C12.115701922047585 0.701952587114067, 55.75601499313339 -0.7278993172134391, 66.85457127179771 -1.0632984836620607 M0.11661719868890952 0.1487979123461991 C11.561678511025082 0.24787912005500623, 58.086269485846515 0.12671843869321708, 69.21953431418916 0.02772079470219513" stroke="#000000" stroke-width="1" fill="none"></path></g></g></svg>