<svg version="1.1" xmlns="http://www.w3.org/2000/svg" viewBox="0 0 936.6356533576964 1620.7970174153647" width="1873.2713067153927" height="3241.5940348307295">
  <!-- svg-source:excalidraw -->
  
  <defs>
    <style>
      @font-face {
        font-family: "Virgil";
        src: url("https://excalidraw.com/FG_Virgil.woff2");
      }
      @font-face {
        font-family: "Cascadia";
        src: url("https://excalidraw.com/Cascadia.woff2");
      }
    </style>
  </defs>
  <rect x="0" y="0" width="936.6356533576964" height="1620.7970174153647" fill="#ffffff"></rect><g transform="translate(10 10) rotate(0 455.31514485677053 800.3985087076824)"><path d="M0.39606037288904195 -0.16974027305841446 C271.5585483743248 -0.8834091381752991, 542.9534597766394 -0.9695533470833801, 910.7341029341019 -0.03203032165765762 M-0.1609644539654255 -0.31515736505389214 C212.05476222124508 3.865851549806983, 424.48302475460986 3.7339614197639537, 910.6129856857157 -0.0827271692454815 M911.0849875623977 -0.08013785034418107 C905.6099224909543 590.508187529706, 905.0544994696378 1181.9031275948148, 910.0827321703232 1600.0468487327298 M910.6234717162943 -0.3115451090037823 C910.6260390580667 441.63912875659634, 910.6692828715813 883.5852867835735, 910.9387744459009 1600.4635331479212 M909.9249620134628 1600.3236069266995 C640.9857906305372 1599.7948278660879, 373.3701559297404 1600.6102125878438, -0.13062844127416612 1600.8315286700927 M910.8724355253077 1600.6174971905848 C604.093985599933 1603.951827337851, 297.3567336420876 1603.7929764534135, -0.13353122547268867 1600.7112326232098 M-0.7130690082907677 1601.0429182117186 C-0.5417254113142278 1167.1797312398592, -0.1986285351698186 734.0742331718084, 0.16461029201745989 0.3034059748053551 M0.34693771526217465 1600.627470835795 C-5.227613152060263 1259.0519676095146, -5.237511123213522 916.7346926852359, 0.13562759086489679 -0.32056136056780815" stroke="#000000" stroke-width="1" fill="none"></path></g><g transform="translate(11.453904947207775 12.147686990072799) rotate(0 457.5908742052443 16.544350157392785)"><path d="M1.7299075685441494 0.36824119463562965 L914.5524546669678 -0.6382935009896755 L916.1161621378617 34.173734331305354 L-0.322988573461771 34.10727074163708" stroke="none" stroke-width="0" fill="#ced4da"></path><path d="M-0.13163671344518663 -0.6357947126030923 C320.6249766680107 1.421561498670911, 639.8896970440954 0.4099991989425174, 915.004577801551 -0.20246403366327287 M-0.09127713516354562 0.3614085204899311 C235.4533869022105 -3.697709291618094, 470.95165125086385 -3.9374714309384675, 915.1697838621096 0.05928518846631051 M914.2630671502905 -1.6631110347807407 C914.8619813274343 9.858359632837589, 915.1691711496312 21.429814278727402, 916.5399832965688 32.44488628375086 M915.8442813640343 -0.8717994075268507 C914.6052216717476 7.218676049746438, 915.230386717009 13.92762265264961, 916.0235484724747 33.61949243376705 M914.748741934623 33.833103794778914 C653.1566902656292 32.72973336801723, 390.3826088725144 32.4046609364529, -0.5196017727255822 32.99152907821092 M915.5010430889087 32.96212231832298 C566.9380567842003 33.62202752258499, 218.19795790014615 33.72688666012009, 0.266086208075285 33.33605031686577 M0.5677090920507908 32.974282698507636 C0.882385042342285 24.998624136400935, 0.028159764441589186 14.15376009944072, -0.17868256196379662 -1.1859485544264317 M-0.0865235049277544 32.51259394715282 C0.8089436255732043 21.265791689917727, 0.6574553810396655 9.06775842987501, -0.40518501587212086 -0.6859011631458998" stroke="#000000" stroke-width="1" fill="none"></path></g><g><g transform="translate(42.80266910109458 19.705753837732487) rotate(0 11.689241917954405 0.10316179033834771)"><path d="M-0.19745507016777997 -0.9536920689046382 C3.925330947776297 -0.7474716038510942, 21.067749199964894 0.9333729381334064, 25.138741547254675 1.0073172496224971 M-1.76025771134533 1.1600156495813283 C2.268217208440388 1.075216912462116, 20.560936317159655 -0.4512929537579391, 24.784020583335142 -0.5483321102649688" stroke="#000000" stroke-width="1" fill="none"></path></g></g><g><g transform="translate(44.45915973395313 28.90835018871374) rotate(0 12.067382728873781 -0.3648134692542584)"><path d="M-0.9536920689046382 1.130141904205084 C3.266051775653818 1.1876108719899512, 21.00098983565797 0.392098478473353, 25.088457526651972 0.14735873654142329 M0.7464808655809612 0.6778624585736543 C4.922816470953608 0.36621768811971006, 21.06912828659159 -1.8867365047395204, 24.70733745191602 -1.8597688427136063" stroke="#000000" stroke-width="1" fill="none"></path></g></g><g><g transform="translate(43.22295227615723 36.54832039398107) rotate(0 12.246413344072153 0.2849158418161437)"><path d="M1.130141904205084 1.0798578836023809 C5.201134251494865 1.1538021950914716, 20.459715375997916 -0.267343771957231, 24.2284990135709 -0.5100261999700934 M0.2643276745732872 0.601179327154532 C4.213817246611201 0.9246594558495287, 19.633684735610007 0.767614063353839, 23.39590071946738 0.7977191291063308" stroke="#000000" stroke-width="1" fill="none"></path></g></g><g transform="translate(379.8843986799948 18.52829908399886) rotate(0 73.5 12.5)"><text x="0" y="18" font-family="Virgil, Segoe UI Emoji" font-size="20px" fill="#000000" text-anchor="start" style="white-space: pre;" direction="ltr">MIL PALMERAS</text></g><g transform="translate(390.3675253082056 106.83603942611148) rotate(0 70.5 17.5)"><text x="0" y="25" font-family="Virgil, Segoe UI Emoji" font-size="28px" fill="#000000" text-anchor="start" style="white-space: pre;" direction="ltr">SERVICES</text></g><g transform="translate(76.44414121721638 225.00019781358606) rotate(0 388.2558338677709 139.8556381908815)"><path d="M-0.08228492587804795 -0.7756570592522621 C296.9558170785597 -1.8440818927544549, 594.0257565463763 -2.243037380959411, 775.9616046514755 -0.09513094574213028 M-0.14917370155453683 0.03625226095318795 C226.89162900353915 2.965290023573514, 453.20619803553717 2.962803580053922, 776.5772695724313 0.2662685163319111 M776.1254737848992 -1.1649494402688996 C775.4296726590084 102.52693709772356, 775.7062252076191 202.41505577920597, 777.1138537890657 280.4549884483281 M776.4746586938105 -0.6284761316025247 C777.4671205268066 63.44338340403485, 777.3549797440734 128.77055565630042, 776.3802528265041 280.1921944845383 M776.389139756227 280.3631868998728 C535.3103943976361 277.9106555150214, 295.56709978367405 277.1261195824805, 0.669218398630619 279.55259668037513 M776.382199758703 279.76256641775586 C584.9098328230731 282.7770713599346, 393.53364432372246 283.0505538495205, 0.3415560357272625 279.762676972451 M-1.3780087875550637 279.5993277258704 C-0.46667466995316037 172.14904636936163, 0.8970265391426452 63.07852987117162, 0.5405181814965034 0.36549016956909675 M-0.2815265007874476 280.28836490903626 C1.748635282648669 213.19090907142458, 1.6428299332817793 147.28930359200916, -0.6775545959804407 0.3171190760904758" stroke="#000000" stroke-width="1" fill="none"></path></g><g transform="translate(78.47178376619013 225.4251209275085) rotate(0 138.65725389167437 138.65725389167437)"><path d="M-1.857874270528555 -1.4489126838743687 L276.8503444836988 -1.626637402921915 L277.90043133958716 276.43049096777577 L-0.3757045231759548 277.6814695568337" stroke="none" stroke-width="0" fill="#868e96"></path><path d="M-1.4952848768242883 -0.27356373105721943 C97.85289396469224 -0.10717975684294326, 195.7093578086886 -0.8404460999798429, 277.1311176332954 -0.12700488575567379 M0.06988585600735187 0.6417308924339394 C104.58991858252797 0.9685041307266188, 209.060534964427 0.9239435736591, 277.82781102850885 0.47722191734530534 M276.14349156196596 -0.9567189753896576 C279.0533377196361 80.8324709407263, 277.71035425991107 163.62771639054498, 278.06209292642995 276.2277990869582 M276.6827586967201 0.5469837677627868 C278.55670682581297 88.94437862594422, 279.6859979906827 176.88814000037115, 277.79793039384117 277.3921673134711 M278.57123835408834 276.49061876642264 C209.6726015105721 278.1498551042306, 139.89277148023825 278.2770882377168, -0.30589724532775514 276.4896830820051 M277.41338294246333 276.97006894085433 C218.74038088713752 276.3684911146548, 160.50941089509615 277.28081536497706, 0.09908828263572968 278.004480290174 M-0.1125316580108488 276.9707647794416 C2.2101659679007004 193.53540367008065, 2.0804428236569286 108.24551255213876, 0.36739355591480116 -0.9877662510618738 M0.5800938678118956 277.0758375436643 C-0.7128256476097328 219.44351738209608, -0.6156755632806425 161.58149703736865, 0.31877055722361985 0.720883414697777" stroke="#000000" stroke-width="1" fill="none"></path></g><g transform="translate(373.9419731027101 243.80230543951893) rotate(0 67 17.5)"><text x="0" y="25" font-family="Virgil, Segoe UI Emoji" font-size="28px" fill="#000000" text-anchor="start" style="white-space: pre;" direction="ltr">HEADING</text></g><g><g transform="translate(381.44246502785063 302.32354203000386) rotate(0 208.06662159448024 -1.8479466652173073)"><path d="M-0.21286074891686435 -0.6012109659612178 C69.46054290928565 -1.3062038114822636, 348.3237781275373 -4.77089534260667, 417.91699456039805 -5.393442662004668 M-1.7837513714376838 1.6975493315700443 C67.72015882700369 1.1937603559282444, 346.57009731801526 -3.687251781368246, 416.835316691948 -4.485830614874426" stroke="#000000" stroke-width="1" fill="none"></path></g></g><g><g transform="translate(383.9870844599882 325.09145448190475) rotate(0 209.22640932119884 -2.6367155018915867)"><path d="M-0.6012109659612178 -0.2545379139482975 C69.08801801153147 -1.0555433041013011, 347.200213772462 -4.345879185277587, 416.9718882760777 -5.018893089834887 M1.2840145475696771 -1.4337742641102524 C71.42205835792855 -2.0839823703157885, 349.73666167652533 -3.649102141441395, 419.05402960835943 -3.91464251731551" stroke="#000000" stroke-width="1" fill="none"></path></g></g><g><g transform="translate(385.0766075476731 347.83889282728705) rotate(0 209.68533989598518 -1.7757781150239964)"><path d="M-0.2545379139482975 -1.1996441982686519 C69.33867851891243 -1.822191517666651, 347.6252299297911 -3.9909487531367596, 417.3464378482475 -4.3364948823492115 M1.812690951889381 0.7849386523012072 C71.80431563168452 0.4068791039970536, 350.3848113164522 -1.8878332324266336, 419.6252177059184 -2.8739852508998545" stroke="#000000" stroke-width="1" fill="none"></path></g></g><g><g transform="translate(383.6392751666099 368.3376294561808) rotate(0 208.41459592873252 -1.4682472957160257)"><path d="M-1.1996441982686519 -0.8250946260988712 C68.57203030534707 -1.4981085306561719, 347.9801603619319 -3.5440588832680042, 418.02883605573317 -4.292621341292102 M0.3714038683008405 1.356126749860123 C70.02517710599736 0.9011056591880344, 347.26608022546696 -1.816326180876782, 417.005874972334 -2.8070781007877623" stroke="#000000" stroke-width="1" fill="none"></path></g></g><g transform="translate(387.862646496269 393.6459261616719) rotate(0 41 10)"><text x="0" y="14" font-family="Virgil, Segoe UI Emoji" font-size="16px" fill="#000000" text-anchor="start" style="white-space: pre;" direction="ltr">ADDRESS</text></g><g><g transform="translate(485.3279870299302 402.76961078488876) rotate(0 156.3020539211184 -2.8369816377204984)"><path d="M-0.14269641861319537 -0.09882287755608554 C52.43738738275854 -0.8904971728537588, 262.104999204342 -4.867658760057941, 314.2808586099618 -5.575140397884911 M-1.6767507677245885 -1.1963088336121293 C50.930857392575355 -1.8096533055946589, 261.55151317776995 -4.3316474201382995, 313.8162738286857 -4.627117374680033" stroke="#000000" stroke-width="1" fill="none"></path></g></g><g transform="translate(239.47751018844974 224.82801304601116) rotate(0 57.83311998521958 17.365337062526407)"><path d="M1.6117678917944431 1.647904809564352 L113.67930245127627 0.5390124879777431 L114.3380471440787 33.53475287909043 L-0.31446385011076927 35.24616542810929" stroke="none" stroke-width="0" fill="#ced4da"></path><path d="M1.534795816987753 -1.8711181841790676 C26.001037398303083 0.2765152270157023, 55.1582541688274 0.39225302284547525, 116.10982482608506 0.28456688299775124 M-0.06069481186568737 0.20073643140494823 C36.345131791442554 -1.4751441378933774, 72.57334799741193 0.1333201627390994, 115.22614091176638 -0.021661194041371346 M116.04961459811875 1.8766527213156223 C115.7381070224024 10.143836851684672, 117.25329535877478 21.582411515500986, 116.79256730254838 35.67732236886752 M115.12797301549563 -0.6841820795089006 C115.73081386511248 10.63911430919174, 115.34974843685549 20.054053077653123, 116.42026257056841 34.15560496392084 M113.9038963812227 36.64327905679477 C70.64328110903539 34.3685041038808, 26.02163907293206 34.58942836211292, -0.6584938205778599 36.57546101117862 M115.72436213035235 34.34545529427362 C70.19156183884832 35.69266800763673, 26.29035525156793 36.66461573722429, 0.6659653801470995 35.545539205692535 M-1.8512113727629185 34.90649948621524 C-0.8167284809354881 24.592459834296147, -0.7017705522779564 10.08384391894932, -0.8948873914778233 -1.1092740260064602 M-0.9289371352642775 34.00621778311563 C-0.37565612313789226 26.565756228375573, 0.1493873048062911 19.585467326833758, -0.1878522615879774 0.18348088674247265" stroke="#000000" stroke-width="1" fill="none"></path></g><g><g transform="translate(262.4784438613806 242.69083818193803) rotate(0 42.59547761680005 -0.10762599734053424)"><path d="M0.9208774901926515 -1.1226709105074406 C15.152286191694111 -1.2446968348378202, 70.95057832058356 -0.8911676176161866, 85.24575579039556 -0.830978423538363 M-0.05480055679567153 0.9023229161370545 C13.991914695864216 1.0028279602939376, 69.64520442834892 0.8056803241568256, 84.06276174681996 0.7635441386841921" stroke="#000000" stroke-width="1" fill="none"></path></g></g><g transform="translate(386.6533970127748 458.77944803202263) rotate(0 19.5 10)"><text x="0" y="14" font-family="Virgil, Segoe UI Emoji" font-size="16px" fill="#000000" text-anchor="start" style="white-space: pre;" direction="ltr">$$$</text></g><g transform="translate(80.13463193987263 576.0699406521278) rotate(0 388.2558338677709 139.8556381908815)"><path d="M0.6784428820014 0.3163570895791054 C247.09645833086648 -1.4460186290685586, 493.27650838666517 -1.776099853510087, 775.9906165894513 0.3401270881295204 M0.23822832182049752 0.3193225972354412 C298.06083910965793 -0.08097353523160253, 596.6125522229348 -0.21094749515439307, 776.6717046101038 0.33997200652956966 M777.0889798459209 -0.1844110380498418 C777.7071066586009 110.86117967861611, 778.9717923965015 222.88982188664795, 775.2032113105046 280.08261279582973 M776.7683029468716 0.7259095048067131 C774.9049668617173 63.91592300692238, 775.287044658188 128.60979427553917, 776.9930570636072 279.5217122444241 M776.7443078335766 279.0814486454449 C579.5242817021579 281.53912490628716, 381.65173939642267 280.91693857930653, 0.7293344244360924 279.0132783363781 M776.1665115911906 279.4790324258826 C568.9009667350905 280.753206210306, 361.4350808450548 280.1904029657153, -0.2265931360423565 279.43400648117284 M1.1925739541496245 279.3523828633059 C-1.466538416639064 201.9441409338558, -3.0503044884306876 125.03444932643791, -0.09913869859762373 1.2500458418193803 M0.28627905886519966 279.945767956648 C-2.213438120420429 195.2830445623682, -1.552604182125395 112.60465351902153, 0.5652077150521553 0.06309043967106509" stroke="#000000" stroke-width="1" fill="none"></path></g><g transform="translate(82.16227448884638 576.4948637660502) rotate(0 138.65725389167437 138.65725389167437)"><path d="M1.5100294910371304 -1.3664381466805935 L277.97872936442036 -1.360060092061758 L277.85380387022633 277.6759174512281 L1.606078203767538 276.31548184617895" stroke="none" stroke-width="0" fill="#868e96"></path><path d="M0.6098622659088542 0.9119700680547765 C76.66982340342553 -1.7561488231781928, 151.9056865801197 -2.8179331471882207, 277.97019303111614 1.3006076341941157 M0.6155790690987848 -0.7304473844170194 C105.85554212397982 -1.7881670640302114, 211.28510339313843 -0.9650486808671419, 277.96989407016645 0.7493748426221364 M277.1291363762355 -0.14709829841524047 C275.9106905382386 101.65992000516435, 276.8479610874542 199.7562222064592, 277.68777802961955 276.2333880467722 M278.04419765314117 0.2716865753808486 C277.41176827711155 59.5916095334841, 277.8025654367142 118.35560707151238, 277.1239564408244 276.9651490628474 M276.1003476363002 278.82845946203804 C187.71046049785494 279.2578813359334, 96.22024375714246 279.34233735681875, -1.3455765133151352 276.8062547874546 M276.8667959101446 276.8364329352844 C201.21959147410905 274.79233213562105, 123.52500547570176 275.03249384784453, -0.5345113335921242 277.1306541157775 M-0.3607625510043227 277.60734184260195 C-0.24307985490627143 170.10207002760637, 0.09324064380188243 65.38833706557023, 1.256555784862797 -0.007703933268993301 M0.23571275153756352 276.9619683884813 C1.2933111442854037 170.3576259332722, 2.3942805510170238 63.34542324581352, 0.0634189997567056 0.007008901880756013" stroke="#000000" stroke-width="1" fill="none"></path></g><g transform="translate(377.63246382536636 594.8720482780607) rotate(0 67 17.5)"><text x="0" y="25" font-family="Virgil, Segoe UI Emoji" font-size="28px" fill="#000000" text-anchor="start" style="white-space: pre;" direction="ltr">HEADING</text></g><g><g transform="translate(385.1329557505069 653.3932848685456) rotate(0 208.91957231543483 -1.723813289748648)"><path d="M0.7096066094934941 0.6206468604505062 C70.24268476911507 -0.13648798526890393, 348.769408423112 -3.3508976579490954, 418.21613328073164 -4.068273439947802 M-0.37698864986188707 -0.09911748315207669 C68.91292516324357 -0.6824230090963822, 347.24968351876663 -1.5217553122654461, 417.2915032404567 -2.4649475512377057" stroke="#000000" stroke-width="1" fill="none"></path></g></g><g><g transform="translate(387.67757518264443 676.1611973204465) rotate(0 208.892202615491 -2.4653871882429144)"><path d="M0.6206468604505062 0.044600806385278746 C70.25773383774482 -0.9028961590088139, 348.6202114571195 -4.437643079537516, 418.29705749813456 -4.975375182871062 M-0.5126522671524436 -0.9775877156015486 C68.93587499290392 -1.851195474049745, 347.6321581456281 -3.179042080187788, 417.41491267199615 -3.848277709195677" stroke="#000000" stroke-width="1" fill="none"></path></g></g><g><g transform="translate(388.76709827032937 698.9086356658288) rotate(0 209.1502300072184 -2.7064037373150995)"><path d="M0.044600806385278746 0.12552502378821373 C69.4913256640049 -0.5918507582104932, 347.5334660355311 -3.1258885742012317, 417.3899557552113 -3.6836078315417353 M-1.3911224996019156 -0.8541782840620726 C68.37710252795056 -1.9868512378323058, 349.63487137770585 -4.838616459549954, 419.6915825140382 -5.538332498418454" stroke="#000000" stroke-width="1" fill="none"></path></g></g><g><g transform="translate(387.3297658892661 719.4073722947226) rotate(0 208.7070050192392 -1.6752857565508634)"><path d="M0.12552502378821373 -0.781576719135046 C69.80237106480324 -1.3193088224685918, 348.8452205408674 -2.6241614864054976, 418.68172310654063 -3.1817918136159964 M-1.2677130680624398 1.4224915579799564 C68.24144676416802 0.5637752141740938, 347.97529699834365 -4.073482650661458, 418.00152772481545 -4.773063071081701" stroke="#000000" stroke-width="1" fill="none"></path></g></g><g transform="translate(391.55313721892526 744.7156690002137) rotate(0 41 10)"><text x="0" y="14" font-family="Virgil, Segoe UI Emoji" font-size="16px" fill="#000000" text-anchor="start" style="white-space: pre;" direction="ltr">ADDRESS</text></g><g><g transform="translate(489.0184777525865 753.8393536234305) rotate(0 156.8259455240036 -1.6870115279597258)"><path d="M0.5101906321942806 1.0120066501200198 C52.87810130543797 0.4112644856359451, 262.07224315441096 -3.6349449817409663, 314.33298906325035 -4.386029706039494 M-0.6810980152431876 0.49770619609393174 C51.60294612466148 0.1755332236021399, 261.50156020162507 -1.841758908204913, 313.8957727699508 -2.8137235696157723" stroke="#000000" stroke-width="1" fill="none"></path></g></g><g transform="translate(243.168000911106 575.8977558845529) rotate(0 57.83311998521958 17.365337062526407)"><path d="M0.01898687705397606 0.5155422724783421 L117.40727477248856 1.49092972651124 L116.33506839450547 35.74753222966922 L0.7575679384171963 35.29262946153415" stroke="none" stroke-width="0" fill="#ced4da"></path><path d="M1.6216799058020115 0.11073296889662743 C28.357510237669008 0.6211546191400186, 52.43819301704577 -0.5204716196829184, 114.3315215083594 -0.1948830522596836 M0.6253330986946821 -0.5459929089993238 C39.703877569086785 -1.2442636748931397, 78.55979439970838 -1.277268495239972, 116.39517565731057 0.45454096980392933 M113.91671037402102 0.4568512998521328 C116.41939571769394 9.34978801437829, 116.45496765048661 13.899764371238435, 117.36705410208651 34.72962287420762 M115.92213841442117 0.4737894553691149 C115.87121564018479 11.81138971012502, 116.56209075319519 25.64264421597956, 116.52314510110864 34.398236671261316 M115.19134819235751 35.22965434546006 C68.69566593811268 33.18826356652401, 23.936681834502608 35.68449285748623, -1.7558674775063992 33.25166741365922 M116.48548688653955 34.59856120663119 C88.29597686127677 34.22096753622543, 59.560963219680986 34.11409110332977, -0.8424130994826555 34.60794899778796 M1.736242774873972 32.90566006655229 C0.4634053357953524 25.1472578912661, -1.1973499408846402 12.634518405188896, 0.8085423745214939 1.1489605270326138 M0.7550147455185652 34.04745505171252 C0.3035468304028351 21.07248509246911, 0.2410840833058197 8.955060985886831, 0.803039101883769 -0.49951296858489513" stroke="#000000" stroke-width="1" fill="none"></path></g><g><g transform="translate(266.16893458403683 593.7605810204798) rotate(0 43.21633012249504 -0.793027287595919)"><path d="M0.9730079434812067 0.06643978133797646 C15.28930314820227 -0.09918922946396078, 72.4773714592664 0.1404297418622868, 86.40796186052066 0.018232585308396443 M0.024698384469375112 -0.9442832787986846 C14.200865554539162 -0.9102729415109267, 71.36356396484025 -1.891133702638502, 85.83512600376075 -1.6014090728244992" stroke="#000000" stroke-width="1" fill="none"></path></g></g><g transform="translate(390.34388773543105 809.8491908705644) rotate(0 19.5 10)"><text x="0" y="14" font-family="Virgil, Segoe UI Emoji" font-size="16px" fill="#000000" text-anchor="start" style="white-space: pre;" direction="ltr">$$$</text></g><g transform="translate(82.8016648174771 909.9328556911904) rotate(0 388.25583386777043 139.85563819088156)"><path d="M-0.5649794086813927 -0.12103645950555803 C292.5615548777324 -0.6412845865274797, 583.0845262369002 -0.576234032251967, 776.6265160646682 -0.15630471855401995 M0.29344955608248713 0.30352165773510936 C292.735046729317 -0.8111323143390863, 584.9247510497684 -0.8311564470676629, 776.7692954484766 -0.05266890451312065 M775.923454939598 -1.298490554247675 C776.8699015388808 85.78428856606249, 778.708455915551 171.272209393723, 775.6197664715711 280.09685110049054 M776.3107921336739 -0.18004692448815873 C778.0716805017973 63.877116357390825, 778.348285129353 127.19741606540887, 776.128575404131 279.4450074372298 M776.1308318701033 280.38321582481484 C477.9740257891472 278.55955275781685, 179.08914506219497 278.24283146150646, 0.7767781272530556 279.56825701400857 M776.4623611633126 279.63372833162765 C513.1426628730528 277.08958600422886, 249.83254633938466 277.2975327577307, 0.012770449370145799 279.35363792807084 M-0.07039189259914083 278.59281949364834 C-0.5811785999234926 221.6480990912421, -0.6023738617503305 161.98987892559074, -0.4217380362865748 1.4156801540697441 M-0.10849139439292875 279.0245327811639 C-1.786952680130277 215.35411831855322, -2.603083014351245 149.23029777433965, -0.1498742201831371 -0.7194465717582855" stroke="#000000" stroke-width="1" fill="none"></path></g><g transform="translate(84.82930736645085 910.3577788051128) rotate(0 138.65725389167437 138.65725389167437)"><path d="M-1.4643640480935574 1.6830344758927822 L279.07169360383887 1.1167408786714077 L275.5134621308698 279.03981697275776 L-1.6001180373132229 278.01672863676686" stroke="none" stroke-width="0" fill="#868e96"></path><path d="M-0.23332990434907647 1.2512416231710088 C60.85589612006804 0.08275478539109637, 122.35754617081678 1.7315830454885748, 277.0131889478631 1.18544211451763 M0.5851185639146532 0.18109531053842412 C87.7046168881241 -2.2578751103916237, 174.97853559004875 -1.0721276764366596, 277.2129744891462 0.03722562721664725 M276.009254997455 -0.3136009861329259 C276.7387092718069 93.39082163475379, 276.9640913711157 182.81604090110085, 277.70209048400295 276.19873771620354 M277.13352321706833 0.3270026514378569 C279.0491342760477 99.75698662311625, 278.69093301923016 197.91879031965638, 277.0468521731388 277.9656730570249 M278.60984942351337 277.29302390574946 C172.97983340887956 275.58417592930084, 68.71614645136054 277.79398464017254, -0.27570779527536504 277.9161616912906 M277.1650133318879 277.0794590348714 C203.26064619617273 276.6943415552937, 129.5894855552801 277.07553459779825, -0.6894430532125752 276.6093346992675 M-1.1242815470148437 277.5727895019723 C-1.7537635364922408 183.52505748996757, -3.0849661420127408 88.83772069459597, 1.4230526814302416 -1.0468136462263216 M-0.6903199988204985 277.46023925109444 C0.688925543043468 168.47683341923891, -0.5138173541775061 60.837802485857594, -0.7231932793175149 0.2561237984465095" stroke="#000000" stroke-width="1" fill="none"></path></g><g transform="translate(380.2994967029708 928.7349633171233) rotate(0 67 17.5)"><text x="0" y="25" font-family="Virgil, Segoe UI Emoji" font-size="28px" fill="#000000" text-anchor="start" style="white-space: pre;" direction="ltr">HEADING</text></g><g><g transform="translate(387.79998862811135 987.2561999076082) rotate(0 209.60764237106787 -2.452998529719366)"><path d="M0.9735948108136652 -0.40488721355795854 C70.62498079933845 -1.1248130729950199, 347.4991451252561 -3.830548457879191, 417.0608468181266 -4.5011098458807055 M0.02559335715137423 -1.6630569460149855 C70.10592660933422 -2.1896187678787093, 349.5825319895365 -2.863222782158842, 419.1896913849841 -3.1250230702853834" stroke="#000000" stroke-width="1" fill="none"></path></g></g><g><g transform="translate(390.3446080602489 1010.0241123595091) rotate(0 208.72966693932176 -1.5504627705599887)"><path d="M-0.40488721355795854 -1.1106856562197207 C69.26940875001871 -1.9432057863629588, 348.14056065718944 -3.6614065051857283, 417.86422109220166 -4.021525970045763 M1.583408269984648 0.9206004289258272 C71.0886792341216 0.22233234423518378, 347.51069067573474 -1.3852813043013117, 416.7548371529485 -2.3936576596370966" stroke="#000000" stroke-width="1" fill="none"></path></g></g><g><g transform="translate(391.43413114793384 1032.7715507048915) rotate(0 208.61655965590808 -2.367783461855879)"><path d="M-1.1106856562197207 -0.30731138214468956 C68.45101603665077 -0.9778727701462041, 348.3097026098829 -3.810208039063578, 418.3438049680366 -4.4282555415670455 M0.50706564492546 -1.5142538031097503 C69.8406303462355 -1.9655348060342652, 347.7686321535923 -2.8322036434650326, 417.4862025635968 -3.013920256207052" stroke="#000000" stroke-width="1" fill="none"></path></g></g><g><g transform="translate(389.9967987668706 1053.2702873337853) rotate(0 208.81488200718513 -2.3687233954157136)"><path d="M-0.30731138214468956 0.17227249369025222 C69.41634905286752 -0.18784697116978294, 348.160901076005 -2.6090498567405995, 417.9370753965153 -3.2714024453799313 M1.7322114128898831 -0.7828883924614638 C71.31276319596604 -1.3707454625952225, 347.54170981442854 -4.05043741542249, 416.8659399670268 -4.909719284521702" stroke="#000000" stroke-width="1" fill="none"></path></g></g><g transform="translate(394.2201700965297 1078.5785840392764) rotate(0 41 10)"><text x="0" y="14" font-family="Virgil, Segoe UI Emoji" font-size="16px" fill="#000000" text-anchor="start" style="white-space: pre;" direction="ltr">ADDRESS</text></g><g><g transform="translate(491.68551063019095 1087.7022686624932) rotate(0 155.8607487066538 -2.5274580968874716)"><path d="M-0.23445707783102987 0.9223960183560849 C52.0731253502497 0.21693159244317717, 261.1257187086984 -3.316463973032489, 313.53818318633967 -4.0605140617871935 M-1.8166857730317862 0.3610499826539306 C50.37535779299936 -0.7308244385168317, 260.05811042191345 -5.0160753699244855, 312.683693807662 -5.9773122121310145" stroke="#000000" stroke-width="1" fill="none"></path></g></g><g transform="translate(245.83503378871046 909.7606709236155) rotate(0 57.83311998521958 17.36533706252635)"><path d="M0.9028153456747532 -0.20044893398880959 L115.79574739661166 -0.5470312274992466 L113.92185735430667 35.637410793252116 L1.0857106484472752 35.06938532347215" stroke="none" stroke-width="0" fill="#ced4da"></path><path d="M0.29700344428420067 0.6532590426504612 C37.82762907116774 0.6285242952842758, 73.19046523882277 0.12788712163162685, 113.87893324073502 0.9168504513800144 M0.31235081143677235 -0.5139811355620623 C41.76618449167406 -0.9021894723670529, 84.09581353629123 0.2834747641785098, 116.66125738162646 0.48545542173087597 M116.81710558112809 1.4338935650885105 C115.2298041124216 7.930762040439447, 116.60166282843265 17.32302007267515, 117.23553817447373 34.324281077630644 M116.40398609180102 -0.25697574205696583 C115.06964287183311 9.52469036705371, 115.53175714633491 16.927600906706378, 115.20433038015017 33.89284128489328 M115.00833575900742 33.036484103448515 C69.48895945933404 34.794175527225505, 23.19510424730713 35.2290470816002, -0.9248392023146152 35.8175391962601 M116.05684607762942 35.67807430567575 C80.55120936367263 32.94390596822272, 45.695415865658234 33.84937687591086, 0.15365982241928577 34.04396212639642 M1.8007476888597012 34.622363071687346 C-0.603328946837183 23.475706683269614, 0.05750834583402059 17.288160554861644, -1.749821487814188 -1.6330382786691189 M-0.7321820240467787 35.572191362999206 C1.2043196495204618 25.548392242294305, -0.5747960869640658 16.112024075568897, -0.8000590186566114 0.3511104267090559" stroke="#000000" stroke-width="1" fill="none"></path></g><g><g transform="translate(268.8359674616413 927.6234960595424) rotate(0 42.69312249274344 -0.6408714727240294)"><path d="M0.1782020665705204 0.39195542559027663 C14.646215840093463 0.23336105033216267, 72.27414282616064 0.0910810939698119, 86.57362556330663 -0.029170233192598927 M-1.187380577819422 -0.4478719213139266 C13.220157409673229 -1.0131337648218386, 71.66364029935397 -1.3563903906745267, 86.08776315050935 -1.6736983710385176" stroke="#000000" stroke-width="1" fill="none"></path></g></g><g transform="translate(393.0109206130355 1143.712105909627) rotate(0 19.5 10)"><text x="0" y="14" font-family="Virgil, Segoe UI Emoji" font-size="16px" fill="#000000" text-anchor="start" style="white-space: pre;" direction="ltr">$$$</text></g><g transform="translate(86.24488177711373 1249.0849349555133) rotate(0 388.25583386777043 139.85563819088156)"><path d="M0.7890979513525963 -0.6527902588248253 C285.02958076277537 1.3091768401344677, 570.1491391967567 0.9459611552437207, 775.7401525792127 -0.2081111416220665 M-0.035455917567014696 -0.2925968773663044 C297.7593264016391 -2.3918141611760197, 595.4774249134722 -2.124080754155451, 776.341995437855 0.14851838275790216 M776.9469488122866 -1.2583545082287262 C778.8050960332698 106.12904173573115, 778.519368079892 213.46446986830358, 775.2133740662249 279.6977976769763 M775.9145902695826 0.3773200702207039 C774.6165614956419 81.9473442152923, 774.7293921529323 163.62770000559712, 776.5976361750764 279.4219882892508 M775.7693702515606 280.26942715153314 C516.5679007445849 283.1456915170559, 256.9840810789176 282.8904683858761, 0.6757972940802575 280.32245892986873 M776.5138219196741 279.69589865684725 C544.3608475401074 279.46520620226215, 311.7001834937929 279.1399052464897, 0.2914012439548969 279.54072332859255 M0.7075399243911364 278.50991535162524 C1.374717199126403 194.90716689198814, 2.3545835074729013 107.6935111169245, -0.5553984483137199 -0.6347248262631019 M0.4237588316604789 279.1853929110292 C0.013880492550154278 202.7457580896682, -0.02593914187219637 125.98898142339567, -0.03735111843961882 -0.2644135606786525" stroke="#000000" stroke-width="1" fill="none"></path></g><g transform="translate(88.27252432608748 1249.5098580694357) rotate(0 138.65725389167437 138.65725389167437)"><path d="M1.3545420728623867 1.1003991402685642 L278.6814076872124 1.6252594031393528 L278.2111567230477 275.45547599061865 L-1.323666874319315 278.5908175156965" stroke="none" stroke-width="0" fill="#868e96"></path><path d="M-1.2584265044914917 -0.84548656595701 C60.736745397062684 -3.626765559373478, 120.14750968902021 -3.5965485324151785, 276.91331831558824 1.2859790967623215 M-0.5640581498138024 0.10821058522607595 C109.22068727923771 0.3264898562201522, 218.99759498393763 -0.13754200548416243, 277.60081638973514 0.6378091145748734 M276.04960006250735 0.9110398070954281 C274.8939238107713 101.74546706782772, 275.18155305363723 200.93823155977103, 277.3009588846559 277.19365828705446 M277.69379284723937 -0.675781499986499 C278.62768749251325 66.827921951297, 278.58629497039664 134.86698654007267, 277.0237131468824 277.5834829973406 M278.3904915510072 277.49920231530643 C202.11374053684068 276.39363961394855, 125.01863344135413 276.6331352060098, 1.1782165974772516 277.30058856702584 M277.28486313661705 277.5108325579521 C184.8460651725911 276.73581418470445, 91.85225660638217 277.88777724315264, -0.32878628262317044 277.3792236589207 M-1.2076174341984598 276.9560059353842 C1.1427294882163515 217.12311878547573, 0.18500036789063323 155.1205042108977, -0.6380303230128862 -0.38095579206328195 M-0.5286221474506124 277.6404846916631 C1.892492328666068 190.39432993544557, 2.140985299933891 102.86470664800267, -0.2657905639551242 -0.3117160141272864" stroke="#000000" stroke-width="1" fill="none"></path></g><g transform="translate(383.74271366260746 1267.8870425814462) rotate(0 67 17.5)"><text x="0" y="25" font-family="Virgil, Segoe UI Emoji" font-size="28px" fill="#000000" text-anchor="start" style="white-space: pre;" direction="ltr">HEADING</text></g><g><g transform="translate(391.243205587748 1326.408279171931) rotate(0 209.212457377384 -1.8823846999277976)"><path d="M-0.6578755997121334 0.48692629560828204 C68.64330787607157 -0.05849208892948732, 347.37872522513686 -3.419547116834288, 416.9907477817311 -4.251695695463854 M1.197600981099531 -0.30304134453646836 C70.7438754013522 -0.5634792671787718, 349.3988916418545 -2.2364457370653654, 419.08279035448084 -2.7446664908996854" stroke="#000000" stroke-width="1" fill="none"></path></g></g><g><g transform="translate(393.78782501988553 1349.176191623832) rotate(0 208.69852955704073 -2.2686858999031756)"><path d="M0.48692629560828204 -1.1807846926152705 C70.33572973408424 -1.9629839590347538, 348.5515619982343 -5.015672926682597, 418.1136352426185 -5.351071198229033 M-0.7165761285368353 0.8136993984226137 C69.05481873482154 0.19217063091069653, 347.5274677208282 -3.4505375970840353, 417.1351937323342 -4.421214132616583" stroke="#000000" stroke-width="1" fill="none"></path></g></g><g><g transform="translate(394.87734810757047 1371.9236299692143) rotate(0 208.96893069900125 -2.2819312039484885)"><path d="M-1.1807846926152705 -0.05789723172783856 C68.43123786397898 -0.8900458103574048, 346.95543618838605 -4.004640114385253, 417.01425973985334 -4.5059651761691155 M0.40016461442224704 -1.1338972237240523 C70.42046863291101 -1.831598692356346, 349.3633758608096 -2.518712558330586, 419.1186460906173 -3.132427448975209" stroke="#000000" stroke-width="1" fill="none"></path></g></g><g><g transform="translate(393.4400157265072 1392.422366598108) rotate(0 208.15596687709422 -1.9704331308232668)"><path d="M-0.05789723172783856 -1.1572727344930172 C69.50417601265633 -1.4926710060394537, 347.9664690006834 -2.839757709283, 417.85936576191324 -3.1931743218938893 M-1.5474320077244192 0.8495551345590502 C67.78669930964395 0.2993978842285294, 346.63520089956296 -3.79226689054965, 416.74743277425864 -4.790421396205488" stroke="#000000" stroke-width="1" fill="none"></path></g></g><g transform="translate(397.66338705616636 1417.7306633035992) rotate(0 41 10)"><text x="0" y="14" font-family="Virgil, Segoe UI Emoji" font-size="16px" fill="#000000" text-anchor="start" style="white-space: pre;" direction="ltr">ADDRESS</text></g><g><g transform="translate(495.1287275898276 1426.854347926816) rotate(0 157.08788263432052 -2.088740181304047)"><path d="M-0.3121667124330997 1.000624141842127 C52.11213815636724 0.6040956919576617, 262.2269686344906 -2.4812960569133904, 314.48793198107415 -3.5364434337998087 M1.7248070342000577 0.480347870970145 C54.0948523223286 -0.1403991867572425, 262.3475165587466 -4.35244429784286, 314.1320607196321 -5.1781045044502525" stroke="#000000" stroke-width="1" fill="none"></path></g></g><g transform="translate(249.2782507483471 1248.9127501879384) rotate(0 57.83311998521958 17.36533706252635)"><path d="M0.7470901571214199 -1.2110255919396877 L114.2498914497728 -0.5594410859048367 L114.88558225806901 35.602240305192595 L-0.6289184726774693 36.20707951093448" stroke="none" stroke-width="0" fill="#ced4da"></path><path d="M1.8799181021749973 1.5267100892961025 C23.367810251703705 -2.427471321085907, 47.37084293467968 -1.068475764254547, 116.02142703261325 1.2346782051026821 M0.6464606206864119 -0.6993788462132215 C30.07724725758336 -1.776906630723377, 60.17780127424105 -1.5565297219442327, 116.0707392907525 -0.4133091550320387 M114.52644622054049 1.0158986411988735 C114.10649806472212 8.463957039844374, 113.91043013545423 15.549157619886358, 114.20765161242434 35.21204439157975 M115.42855837110528 0.8715185541659594 C114.60739401567035 11.50610958810158, 115.6550253390079 22.526139541104584, 116.3556930637742 35.32094250040484 M116.32775258746096 34.60621038431657 C71.20627240141391 34.643346059963534, 27.23396595193914 34.45635925595505, -1.5308133326470852 32.84029391760362 M114.85934039119729 34.881084540657525 C73.00121808154887 34.04470595107136, 29.18139342509869 35.77727081761417, 0.40621343068778515 35.059186855129724 M0.2893303669989109 32.99681952948106 C1.2485017989949752 24.197669859221985, 0.9891633008794356 16.507097917234397, 0.7416615523397923 0.7447929941117764 M0.6772710364311934 35.2808736951871 C0.8031622006531917 25.293207378128514, 0.5680367185708247 13.300965331699814, -0.6618334371596575 0.6381548661738634" stroke="#000000" stroke-width="1" fill="none"></path></g><g><g transform="translate(272.27918442127793 1266.7755753238653) rotate(0 42.923947738254355 -0.45074989245949837)"><path d="M1.1279508613049984 0.9160260535776616 C15.444463503770203 0.4463343901878338, 71.46462181117221 -1.4978334121675592, 85.58690914235812 -1.8175258384968402 M0.26098633415065686 0.3513357863668354 C14.437485096780255 0.53165057845806, 70.42912075149663 -0.7294850125340173, 84.58302060856288 -0.7409406691274851" stroke="#000000" stroke-width="1" fill="none"></path></g></g><g transform="translate(396.45413757267215 1482.8641851739503) rotate(0 19.5 10)"><text x="0" y="14" font-family="Virgil, Segoe UI Emoji" font-size="16px" fill="#000000" text-anchor="start" style="white-space: pre;" direction="ltr">$$$</text></g></svg>