<svg version="1.1" xmlns="http://www.w3.org/2000/svg" viewBox="0 0 412.68318496942527 518.5" width="825.3663699388505" height="1037">
  <!-- svg-source:excalidraw -->
  
  <defs>
    <style>
      @font-face {
        font-family: "Virgil";
        src: url("https://excalidraw.com/FG_Virgil.woff2");
      }
      @font-face {
        font-family: "Cascadia";
        src: url("https://excalidraw.com/Cascadia.woff2");
      }
    </style>
  </defs>
  <rect x="0" y="0" width="412.68318496942527" height="518.5" fill="#ffffff"></rect><g transform="translate(11.091314487531804 10) rotate(0 195.25 249.25)"><path d="M-0.905514484288628 -0.8169326963634838 C81.88280555672152 1.357175811082692, 162.73646657294415 1.120194424073989, 391.64627803896303 -0.629781216410588 M-0.14614776648799124 -0.08139294182567951 C83.51286115415135 -0.6014463200960831, 166.92407934887575 -1.1196718925487057, 390.69334344527437 -0.27491956023945563 M390.37063805536894 -0.2613820845588583 C389.9501671962621 137.81983911643627, 390.1427620680354 276.487555384971, 391.0899280067606 498.6708223400156 M390.1325498578495 -0.30088094843301977 C392.41045864101045 192.72182344487928, 392.5801167737778 385.2426145855772, 390.3544239054007 498.7023379976901 M391.4602608211344 497.66071457714764 C274.99199148185863 498.4702792104858, 160.4155769365698 499.01250368579474, 1.035302196556573 499.48244998233474 M390.985051504321 497.98744507801 C243.62757842258904 498.8950381147474, 97.85913936551589 498.6143265867402, 0.38802732558767256 498.58495464254185 M0.16324787215156145 498.97640062802293 C-0.7342482987287189 313.2810550445494, -0.9770921316009785 130.2608635717551, 0.03682022757530994 0.19977808778645803 M-0.25890505480609033 498.89061465521354 C-0.4423370448278725 376.16038757555094, -0.34107740511741635 254.92064532268068, -0.08266761415982934 0.08912409087716731" stroke="#000000" stroke-width="1" fill="none"></path></g><g><g transform="translate(10.591314487531804 446.5) rotate(0 195.75027799718083 0.3389435738324664)"><path d="M-0.5913144875317812 -0.1416276466101407 C64.59077460678915 0.1643776524811984, 326.6934113771965 0.4772553194314242, 392.0918704818934 0.7800314772874117 M1.299106677174568 -1.2615861064195633 C66.33127125720182 -0.7218102771043777, 326.69133348127207 1.2151411503553389, 391.71705702126025 1.9394732540845872" stroke="#000000" stroke-width="1" fill="none"></path></g></g><g transform="translate(28.091314487531804 457) rotate(0 74.25 20.5)"><path d="M0 0 C39.09493064093404 0, 78.18986128186808 0, 148.5 0 M0 0 C46.810861277254304 0, 93.62172255450861 0, 148.5 0 M148.5 0 C148.5 11.153907125350088, 148.5 22.307814250700176, 148.5 41 M148.5 0 C148.5 13.911663117352873, 148.5 27.823326234705746, 148.5 41 M148.5 41 C92.53887743842787 41, 36.57775487685575 41, 0 41 M148.5 41 C114.6157702777069 41, 80.7315405554138 41, 0 41 M0 41 C0 30.02221905076876, 0 19.044438101537523, 0 0 M0 41 C0 32.352264169510455, 0 23.704528339020907, 0 0" stroke="#000000" stroke-width="1" fill="none"></path></g><g transform="translate(78.8413144875318 461.5) rotate(0 23.5 16)"><text x="23.5" y="23" font-family="Virgil, Segoe UI Emoji" font-size="20px" fill="#000000" text-anchor="middle" style="white-space: pre;" direction="ltr">guide</text></g><g transform="translate(236.8413144875318 457) rotate(0 74.25 20.5)"><path d="M0 0 C36.58180164503865 0, 73.1636032900773 0, 148.5 0 M0 0 C31.20447962251492 0, 62.40895924502984 0, 148.5 0 M148.5 0 C148.5 13.66780111109838, 148.5 27.33560222219676, 148.5 41 M148.5 0 C148.5 16.322761502210053, 148.5 32.645523004420106, 148.5 41 M148.5 41 C116.2348280895967 41, 83.96965617919341 41, 0 41 M148.5 41 C108.82180098029784 41, 69.14360196059569 41, 0 41 M0 41 C0 25.469085563067345, 0 9.93817112613469, 0 0 M0 41 C0 32.5609716928564, 0 24.1219433857128, 0 0" stroke="#000000" stroke-width="4" fill="none"></path></g><g transform="translate(278.0913144875318 461.5) rotate(0 33 16)"><text x="33" y="23" font-family="Virgil, Segoe UI Emoji" font-size="20px" fill="#000000" text-anchor="middle" style="white-space: pre;" direction="ltr">housing</text></g></svg>